<?xml version="1.0" encoding="utf-8"?>
<!-- Svg Vector Icons : http://www.onlinewebfonts.com/icon -->
<!DOCTYPE svg PUBLIC "-//W3C//DTD SVG 1.1//EN" "http://www.w3.org/Graphics/SVG/1.1/DTD/svg11.dtd">
<svg version="1.1" xmlns="http://www.w3.org/2000/svg" xmlns:xlink="http://www.w3.org/1999/xlink" x="0px" y="0px" viewBox="0 0 1000 1000" enable-background="new 0 0 1000 1000" xml:space="preserve">
<metadata> Svg Vector Icons : http://www.onlinewebfonts.com/icon </metadata>
<g><g transform="translate(0.000000,511.000000) scale(0.100000,-0.100000)"><path d="M4724,4972.9c-202.7-54.5-350.8-135.1-503.4-272.4c-492.5-448.9-494.7-1146.3-4.4-1532l106.8-85l-414-496.8c-370.5-444.6-411.9-503.4-405.3-564.4c4.4-41.4,333.4-581.8,873.8-1436.1c477.3-754,871.7-1381.6,878.2-1399.1c13.1-30.5-570.9-453.3-601.4-435.8c-8.7,4.4-401,594.9-871.7,1307.5l-858.6,1301l-39.2-52.3c-289.8-372.6-778-1135.3-954.5-1488.4c-126.4-255-167.8-407.5-196.1-712.6c-67.6-706,189.6-1503.6,669-2063.7l63.2-71.9H4883c1331.5,0,2473.4,2.2,2540.9,2.2l124.2,2.2l126.4,161.3c429.3,544.8,655.9,1285.7,597.1,1952.5c-32.7,398.8-100.2,586.2-381.4,1070c-414,712.6-801.9,1233.4-1932.9,2599.8l-270.2,326.9l109,89.4c453.3,368.3,481.6,998.1,67.5,1444.8C5560.7,4946.8,5124.9,5081.9,4724,4972.9z"/><path d="M1973.8-3656.6c-215.7-74.1-392.3-320.3-392.3-544.8c0-139.5,69.7-292,183-405.3c196.1-196.1-54.5-183.1,3238.3-183.1c3238.3,0,3035.6-8.7,3214.3,154.7c259.3,237.5,268,597.1,26.1,839c-198.3,196.1,52.3,183.1-3249.1,183.1C2207-3615.2,2089.3-3615.2,1973.8-3656.6z"/></g></g>
</svg>