<?xml version="1.0" encoding="utf-8"?>
<!-- Svg Vector Icons : http://www.onlinewebfonts.com/icon -->
<!DOCTYPE svg PUBLIC "-//W3C//DTD SVG 1.1//EN" "http://www.w3.org/Graphics/SVG/1.1/DTD/svg11.dtd">
<svg version="1.1" xmlns="http://www.w3.org/2000/svg" xmlns:xlink="http://www.w3.org/1999/xlink" x="0px" y="0px" viewBox="0 0 1000 1000" enable-background="new 0 0 1000 1000" xml:space="preserve">
<metadata> Svg Vector Icons : http://www.onlinewebfonts.com/icon </metadata>
<g><g transform="translate(0.000000,511.000000) scale(0.100000,-0.100000)"><path d="M4767.4,4980.6c-298.8-65.4-558.3-272.6-687-549.6c-54.5-115.6-72-183.2-78.5-322.8c-4.4-96,0-211.6,13.1-257.3c21.8-74.2,17.5-89.4-52.3-196.3c-41.4-61.1-120-159.2-172.3-215.9c-215.9-233.3-527.8-763.3-588.8-998.9c-76.3-290.1-34.9-737.1,93.8-1020.7c34.9-78.5,39.3-111.2,21.8-185.4c-48-213.7,37.1-482,215.9-676.1c146.1-154.9,137.4-187.6-74.2-279.2C3184.1,158.5,3062-5,3059.8-253.7c0-161.4,67.6-320.6,178.8-416.5c43.6-37.1,181-111.3,309.7-163.6l233.4-96l-13.1-76.3c-76.3-442.7-226.8-961.8-401.3-1367.4c-69.8-165.7-135.2-333.7-144-372.9c-10.9-50.2-26.2-69.8-58.9-69.8c-48,0-379.5-170.1-577.9-296.6c-139.6-89.4-181-157-377.3-647.8c-143.9-357.7-157-399.1-148.3-512.5c15.3-211.6,120-366.4,309.7-468.9l89.4-48h2540.8h2540.8l89.4,48c109.1,58.9,213.7,163.6,261.7,266.1c50.2,104.7,63.3,283.5,30.5,386c-43.6,130.8-449.3,841.8-516.9,907.3c-63.2,58.9-551.8,344.6-591,344.6c-10.9,0-28.3,37.1-37.1,82.9c-6.5,43.6-54.5,170.1-102.5,277c-115.6,257.4-213.7,532.2-296.6,828.8c-69.8,246.4-167.9,706.6-154.9,717.5c4.4,2.2,111.2,48,237.7,100.3c263.9,111.2,368.6,196.3,436.2,353.3c39.3,91.6,45.8,141.8,39.3,257.3c-17.4,244.3-128.7,383.9-399.1,501.6c-205,89.4-213.7,122.1-69.8,277c178.8,194.1,263.9,462.3,215.9,676.1c-17.4,74.2-13.1,106.9,21.8,185.4c128.7,283.5,170.1,730.6,93.8,1020.7c-63.3,246.4-327.1,687-660.8,1105.7c-176.6,220.3-176.6,220.3-152.7,305.3c13.1,45.8,17.5,161.4,13.1,257.3c-21.8,423.1-340.2,780.8-774.2,872.4C5046.6,5019.8,4944.1,5019.8,4767.4,4980.6z M5238.5,4398.2c248.6-117.8,294.4-464.5,82.9-632.5l-45.8-34.9l87.2-106.9c436.2-519.1,726.2-922.5,850.5-1177.7c144-292.2,72-778.6-152.6-1046.8L6004,1334l48-41.4c120-106.9,117.8-292.2-2.2-379.5c-61.1-41.4-91.6-43.6-1055.6-43.6h-990.1l-58.9,54.5c-117.8,109.1-117.8,250.8-2.2,359.9l52.4,50.2l-54.5,65.4c-198.5,237.7-285.7,682.6-187.6,964c39.3,113.4,266.1,488.5,372.9,619.4l61.1,74.2l320.6-582.3l322.8-582.3l67.6,52.3c39.3,28.4,96,69.8,128.7,93.8c32.7,21.8,61.1,50.2,61.1,58.9c0,10.9-152.7,281.3-338,601.9c-185.4,320.6-338,599.8-338,619.4c0,28.4,72,126.5,281.3,370.8c30.5,37.1,30.5,43.6-13.1,76.3c-137.4,109-176.7,320.6-87.2,466.7C4723.8,4448.4,4985.5,4516,5238.5,4398.2z M5801.2,189.1c-6.5-63.2-4.4-135.2,4.4-157c10.9-28.4,115.6-85.1,309.7-167.9C6379.1-249.3,6403.1-262.4,6353-282c-30.5-13.1-172.3-72-316.2-133L5775-526.3h-774.2h-774.2l-294.4,122.1c-161.4,69.8-301,130.9-311.9,139.6c-8.7,6.5,115.6,67.6,272.6,135.2l290.1,120l6.5,154.8l6.6,157h809.1h809.1L5801.2,189.1z M5718.3-1250.4c82.9-429.6,272.6-1040.3,425.3-1374l76.3-170.1H5000.8H3781.7l78.5,170.1c117.8,257.3,301,828.8,379.5,1188.6l72,320.6H5003h689.2L5718.3-1250.4z M6800.1-3448.7c111.2-61.1,211.6-122.1,224.6-137.4c39.2-50.1,353.3-621.5,353.3-645.5c0-17.5-669.6-24-2372.8-24c-1306.4,0-2379.4,4.4-2385.9,10.9c-6.5,6.5,50.2,161.4,124.3,340.2l135.2,329.3l205,115.6l205,117.8h1655.3l1655.3,2.2L6800.1-3448.7z"/></g></g>
</svg>