<?xml version="1.0" encoding="utf-8"?>
<!-- Svg Vector Icons : http://www.onlinewebfonts.com/icon -->
<!DOCTYPE svg PUBLIC "-//W3C//DTD SVG 1.1//EN" "http://www.w3.org/Graphics/SVG/1.1/DTD/svg11.dtd">
<svg version="1.1" xmlns="http://www.w3.org/2000/svg" xmlns:xlink="http://www.w3.org/1999/xlink" x="0px" y="0px" viewBox="0 0 1000 1000" enable-background="new 0 0 1000 1000" xml:space="preserve">
<metadata> Svg Vector Icons : http://www.onlinewebfonts.com/icon </metadata>
<g><g transform="translate(0.000000,511.000000) scale(0.100000,-0.100000)"><path d="M4762.8,4995.3c-159.3-26.2-419-133.1-560.8-229.1c-168-111.3-379.7-344.8-473.6-521.6c-117.8-229.1-157.1-381.9-157.1-621.9c2.2-290.2,85.1-510.6,303.3-798.7c13.1-19.6-6.5-58.9-67.6-133.1c-333.9-397.2-521.6-637.2-545.6-698.3c-37.1-87.3-37.1-233.5,0-333.9c15.3-41.5,377.5-595.8,805.2-1230.8c429.9-635,779.1-1161,779.1-1169.7c0-6.5-43.6-56.7-98.2-109.1c-85.1-82.9-102.6-91.7-128.7-65.5c-17.5,17.5-347,515-733.3,1102c-386.3,589.2-728.9,1095.5-759.4,1130.4c-96,102.6-275,117.9-399.4,32.7c-69.8-45.8-414.6-543.4-641.6-923.1c-279.3-467-438.6-792.2-493.2-1003.8c-58.9-222.6-80.7-774.7-43.6-1040.9c58.9-405.9,205.1-833.6,395-1145.7l106.9-181.1l-102.6-135.3c-130.9-174.6-194.2-320.8-227-528.1c-72-462.6,157.1-927.5,545.6-1110.8l146.2-69.8h2629.6h2629.6l146.2,72c244.4,120,456.1,388.4,517.2,661.2c28.4,124.4,28.4,438.7,0,563c-34.9,152.8-130.9,329.5-253.2,460.4L7968.5-2911l98.2,163.7c113.5,192,251,530.3,309.9,772.5c141.8,560.8,120,1211.2-52.4,1634.5C8158.4,72.1,7612.8,921,7084.7,1593.1c-170.2,218.2-848.9,1049.7-947.1,1163.1c-24,26.2-28.4,48-15.3,67.6c222.6,292.4,301.2,508.5,301.2,809.6c2.2,379.7-141.8,694-443,977.7c-261.9,248.8-565.2,379.7-914.4,397.2C4963.6,5012.7,4826.1,5008.4,4762.8,4995.3z M5365.1,4299.1c484.5-257.5,587-820.5,207.3-1128.2c-216-176.7-259.7-266.2-200.8-425.5c17.5-48,242.2-338.3,521.5-674.3c268.4-323,606.7-739.8,748.5-920.9c449.6-576.1,1006-1453.4,1126.1-1772c111.3-296.8,117.8-807.4,13.1-1200.2c-63.3-244.4-246.6-639.4-375.4-807.4l-85.1-109.1H4998.5H2676.6l-85.1,109.1c-124.4,163.7-312.1,560.8-377.5,807.4c-54.6,196.4-61.1,255.3-61.1,600.1c-2.2,362.3,2.2,390.6,56.7,549.9c74.2,209.5,381.9,763.8,619.8,1117.3l72,106.9L3193.8,107C4027.4-1163.1,4343.8-1630.1,4394-1678.1c80.8-74.2,251-89.5,342.6-30.6c37.1,24,233.5,209.5,436.5,410.3c390.6,386.3,414.6,425.5,384.1,580.5c-6.6,37.1-386.3,622-842.4,1298.4l-829.3,1230.8l360.1,432.1c373.2,445.2,421.2,525.9,395,665.6c-15.3,80.8-56.8,133.1-216.1,261.9c-292.4,237.9-312.1,635-43.6,931.8c187.7,207.3,371,288.1,650.3,277.1C5205.8,4373.3,5242.9,4364.6,5365.1,4299.1z M7588.8-3426.1c187.7-113.5,211.7-477.9,48-665.6l-67.7-76.4H5042.1H2517.3l-58.9,54.6c-82.9,76.4-122.2,185.5-122.2,338.3c0,161.5,37.1,255.3,128.8,333.9l72,58.9h2490C7460.1-3382.4,7521.2-3384.6,7588.8-3426.1z"/></g></g>
</svg>