<?xml version="1.0" encoding="utf-8"?>
<!-- Svg Vector Icons : http://www.onlinewebfonts.com/icon -->
<!DOCTYPE svg PUBLIC "-//W3C//DTD SVG 1.1//EN" "http://www.w3.org/Graphics/SVG/1.1/DTD/svg11.dtd">
<svg version="1.1" xmlns="http://www.w3.org/2000/svg" xmlns:xlink="http://www.w3.org/1999/xlink" x="0px" y="0px" viewBox="0 0 1000 1000" enable-background="new 0 0 1000 1000" xml:space="preserve">
<metadata> Svg Vector Icons : http://www.onlinewebfonts.com/icon </metadata>
<g><g transform="translate(0.000000,511.000000) scale(0.100000,-0.100000)"><path d="M4830,4986.9c-130.8-43.6-231-126.4-285.5-237.6c-78.5-161.3-45.8-324.7,89.4-466.4l67.6-71.9l-89.4-109c-50.1-58.8-130.8-156.9-178.7-213.6c-47.9-58.8-87.2-113.3-87.2-122.1c0-26.2,451.1-832.5,612.4-1094.1c82.8-135.1,150.4-252.8,150.4-261.5c0-30.5-222.3-143.8-239.7-124.2c-8.7,8.7-185.2,279-392.3,601.5l-377,581.9l-95.9-132.9c-128.6-176.5-276.8-420.6-346.5-573.2c-141.7-309.5-52.3-836.9,187.4-1109.3l69.7-80.6l-67.6-56.7c-154.7-128.6-113.3-355.2,78.5-435.9c104.6-43.6,2046.5-43.6,2151.1,0c106.8,43.6,165.6,130.8,165.6,246.3c0,82.8-10.9,109-76.3,174.3l-76.3,76.3l67.6,78.4c163.5,185.3,274.6,547,252.8,830.4c-10.9,132.9-28.3,198.3-100.3,340c-148.2,296.4-455.5,725.7-919.7,1275l-91.5,109l76.3,82.8c146,161.3,161.3,357.4,39.2,523.1C5300.8,4973.8,5032.7,5052.3,4830,4986.9z"/><path d="M4115.2,272.8L4117.3-4l-309.5-132.9c-172.2-71.9-311.7-135.1-311.7-141.7c0-6.5,170-82.8,377-170l374.9-156.9H5000h751.9l377,156.9c204.9,87.2,374.9,163.5,374.9,170c0,6.5-139.5,69.7-311.7,141.7L5882.7-4l2.2,276.8v276.8H5000h-884.8V272.8z"/><path d="M4248.1-1176.5c-4.4-28.3-26.2-143.8-43.6-257.2c-82.8-499.1-276.8-1172.5-453.3-1580.1l-95.9-217.9l673.4-6.5c368.3-2.2,974.2-2.2,1344.7,0l671.3,6.5l-85,194c-183.1,418.4-379.2,1089.7-462,1593.1c-21.8,119.9-41.4,239.7-47.9,268.1l-8.7,47.9h-741h-741L4248.1-1176.5z"/><path d="M2892.5-3935.7l-220.1-124.2l-143.8-348.7c-78.5-191.8-143.8-355.2-143.8-364c0-10.9,1176.9-17.4,2615.3-17.4s2615.3,6.5,2615.3,13.1c0,6.6-89.3,172.2-196.2,364l-198.3,353.1l-224.5,126.4l-224.5,124.2H4943.3l-1828.5-2.2L2892.5-3935.7z"/></g></g>
</svg>