<?xml version="1.0" encoding="utf-8"?>
<!-- Svg Vector Icons : http://www.onlinewebfonts.com/icon -->
<!DOCTYPE svg PUBLIC "-//W3C//DTD SVG 1.1//EN" "http://www.w3.org/Graphics/SVG/1.1/DTD/svg11.dtd">
<svg version="1.1" xmlns="http://www.w3.org/2000/svg" xmlns:xlink="http://www.w3.org/1999/xlink" x="0px" y="0px" viewBox="0 0 1000 1000" enable-background="new 0 0 1000 1000" xml:space="preserve">
<metadata> Svg Vector Icons : http://www.onlinewebfonts.com/icon </metadata>
<g><g transform="translate(0.000000,511.000000) scale(0.100000,-0.100000)"><path d="M100,110v-4900h4900h4900V110v4900H5000H100V110z M2569.6,4864.1c6.5-45.7,13.1-259.2,10.9-474.8c-2.2-215.6-2.2-444.3,0-505.2l2.2-115.4h598.9h598.9v588v588h609.8H5000v-588v-588h609.8h609.8v588v588h609.8h609.8v-588v-588H8038h598.9v588v588h598.9h598.9v-598.9v-598.9h-588h-588V3148v-598.9h588h588v-609.8v-609.8h-588h-588V719.8V110h588h588v-609.8v-609.8h-588h-588v-598.9v-598.9l583.6-4.4l581.5-6.5l6.5-616.3l4.4-614.1h-588h-588v-588v-588l-614.1,4.4l-616.3,6.5l-6.5,581.5l-4.4,583.6h-598.9h-598.9v-588v-588h-609.8H5000v588v588h-609.8h-609.8v-588v-588h-609.8h-609.8v588v588H1962h-598.9v-588v-588H764.2H165.3v598.9v598.9h588h588v598.9v598.9h-588h-588v609.8v609.8h588h588v609.8V110h-588h-588v609.8v609.8h588h588v598.9v598.9l-113.2,2.2c-63.2,2.2-291.8,2.2-507.4,0c-215.6-2.2-429,4.4-472.6,10.9l-82.8,13.1v607.6v607.6h588h588v588v588h607.6h607.6L2569.6,4864.1z"/><path d="M1363.1,3148v-598.9H1962h598.9V3148v598.9H1962h-598.9V3148z"/><path d="M3780.4,3148v-598.9h609.8H5000v-609.8v-609.8h-609.8h-609.8v598.9c0,463.9-6.5,598.9-26.1,601.1c-104.5,8.7-1154.2,0-1165.1-8.7c-8.7-10.9-17.4-1060.6-8.7-1162.9c2.2-21.8,137.2-28.3,601.1-28.3h598.9V719.8V110h-609.8h-609.8v609.8v609.8H1962h-598.9V719.8V110h596.7c551,0,598.9-2.2,609.8-39.2c6.5-19.6,10.9-224.3,10.9-450.8c-2.2-228.7-2.2-485.6,0-570.6l2.2-159h598.9h598.9v-598.9v-598.9h609.8H5000v598.9v598.9l605.4,4.4l603.3,6.5l6.5,605.4l4.4,603.2h598.9h598.9v609.8v609.8h-598.9h-598.9v598.9v598.9l-156.8,2.2c-87.1,2.2-344.1,2.2-572.8,0c-226.5,0-431.2,4.4-450.8,10.9c-37,10.9-39.2,58.8-39.2,609.8v596.7h-609.8h-609.8V3148z M6219.6,719.8V110h-609.8H5000v-609.8v-609.8h-609.8h-609.8v609.8V110h609.8H5000v609.8v609.8h609.8h609.8V719.8z"/><path d="M6219.6,3148v-598.9h598.9h598.9V3148v598.9h-598.9h-598.9V3148z"/><path d="M7500.1,2531.7l-61-6.5v-598.9v-596.7H8038h598.9v598.9v598.9l-47.9,2.2C8423.5,2536,7548,2536,7500.1,2531.7z"/><path d="M7439.1-499.8v-609.8H8038h598.9v609.8V110H8038h-598.9V-499.8z"/><path d="M1363.1-1708.4v-598.9H1962h598.9v598.9v598.9H1962h-598.9V-1708.4z"/><path d="M6219.6-1708.4v-598.9h598.9h598.9v598.9v598.9h-598.9h-598.9V-1708.4z"/><path d="M2580.5-2383.6c0-30.5-2.2-274.4-2.2-544.4s2.2-513.9,2.2-544.4l2.2-54.4h598.9h598.9v598.9v598.9h-598.9h-598.9L2580.5-2383.6z"/><path d="M5000-2928v-598.9h609.8h609.8v598.9v598.9h-609.8H5000V-2928z"/><path d="M7439.1-2928v-598.9H8038h598.9v598.9v598.9H8038h-598.9V-2928z"/></g></g>
</svg>