<?xml version="1.0" encoding="utf-8"?>
<!-- Svg Vector Icons : http://www.onlinewebfonts.com/icon -->
<!DOCTYPE svg PUBLIC "-//W3C//DTD SVG 1.1//EN" "http://www.w3.org/Graphics/SVG/1.1/DTD/svg11.dtd">
<svg version="1.1" xmlns="http://www.w3.org/2000/svg" xmlns:xlink="http://www.w3.org/1999/xlink" x="0px" y="0px" viewBox="0 0 1000 1000" enable-background="new 0 0 1000 1000" xml:space="preserve">
<metadata> Svg Vector Icons : http://www.onlinewebfonts.com/icon </metadata>
<g><g transform="translate(0.000000,511.000000) scale(0.100000,-0.100000)"><path d="M4400.3,4940.2c45.8-252.9,157-968,152.6-972.4c-4.4-4.4-224.6,26.2-490.5,69.8c-266,43.6-497.1,78.5-514.5,78.5c-26.2,0-30.5-98.1-30.5-606.1v-606.1l514.5,82.9c283.4,48,518.9,82.8,523.2,78.5c4.4-4.4-26.2-218-67.6-475.3c-41.4-257.3-76.3-490.5-76.3-516.7v-50.1h599.6c464.4,0,599.5,6.5,599.5,28.3c0,13.1-34.9,244.2-78.5,512.3c-43.6,268.2-71.9,492.7-65.4,499.3c6.6,6.5,231.1-24,497.1-67.6c268.1-43.6,492.7-78.5,503.6-78.5c8.7,0,15.2,274.7,15.2,610.5v610.5l-47.9-10.9c-50.2-10.9-963.7-163.5-981.1-163.5c-8.7,0,69.7,508,146.1,954.9l15.3,91.6h-614.8h-612.6L4400.3,4940.2z"/><path d="M3602.4,1458.5c-133-26.2-274.7-124.3-340.1-235.5c-50.1-87.2-61-133-67.6-305.2c-6.5-111.2-15.3-202.8-24-202.8c-6.5,0-165.7,41.4-351,89.4c-551.6,146.1-826.3,137.3-1155.5-37.1C1378.5,616.9,1151.8,357.5,1021,28.2c-80.7-200.6-100.3-525.4-43.6-719.5c87.2-303,157-403.3,1183.8-1728.9l529.8-680.2l2315.4,4.4l2315.4,6.5l573.4,741.3c841.5,1087.9,911.3,1183.9,1005.1,1362.6C9018-758.8,9055-619.3,9055-396.9c0,412.1-187.5,804.5-499.3,1048.7c-351,272.5-734.7,318.3-1332.1,161.3c-161.3-41.4-320.5-82.8-353.2-89.4l-61.1-13.1v172.2c0,281.3-71.9,420.8-268.1,525.4l-113.4,58.9l-1373.5,4.4C4300,1471.5,3646,1467.2,3602.4,1458.5z"/><path d="M2307.3-3719.5c-207.1-98.1-316.1-274.7-316.1-514.5c0-231.1,115.5-412.1,327-510.2c98.1-45.8,104.6-45.8,2692.5-45.8h2594.4l89.4,48c209.3,111.2,311.8,279.1,314,508c0,242-115.5,425.1-327,521.1c-95.9,43.6-128.6,45.8-2681.6,45.8H2416.3L2307.3-3719.5z"/></g></g>
</svg>