<?xml version="1.0" encoding="utf-8"?>
<!-- Svg Vector Icons : http://www.onlinewebfonts.com/icon -->
<!DOCTYPE svg PUBLIC "-//W3C//DTD SVG 1.1//EN" "http://www.w3.org/Graphics/SVG/1.1/DTD/svg11.dtd">
<svg version="1.1" xmlns="http://www.w3.org/2000/svg" xmlns:xlink="http://www.w3.org/1999/xlink" x="0px" y="0px" viewBox="0 0 1000 1000" enable-background="new 0 0 1000 1000" xml:space="preserve">
<metadata> Svg Vector Icons : http://www.onlinewebfonts.com/icon </metadata>
<g><g transform="translate(0.000000,511.000000) scale(0.100000,-0.100000)"><path d="M4408.2,4994.3c-200.7-61.1-329.4-231.3-331.6-434.1c0-67.6,6.5-150.5,15.3-185.4l17.5-61.1l-139.6,13.1c-181.1,19.6-298.9-10.9-408-109.1c-148.3-133.1-154.9-181.1-148.3-853l6.5-591.2l65.4-96c117.8-165.8,318.5-233.4,545.4-183.3l65.4,15.3v-207.3c0-194.2,4.4-211.6,65.4-298.9c37.1-50.2,109.1-115.6,161.4-144c93.8-48,111.3-50.2,676.3-50.2c652.3,0,691.6,8.7,824.6,159.3c96,109.1,124.4,209.4,106.9,388.3l-15.3,148.3l150.5-13.1c240-19.6,390.5,54.5,490.9,242.1c45.8,82.9,48,122.2,54.5,608.7c8.7,604.3-6.5,711.2-117.8,839.9c-106.9,124.4-229.1,168-431.9,150.5l-159.3-15.3l19.6,104.7c41.5,218.2-41.5,418.9-218.2,521.4l-102.5,61.1l-567.2,4.4C4722.3,5011.8,4440.9,5005.2,4408.2,4994.3z M5481.5,4553.6c0-4.4-30.5-183.3-65.4-399.2c-34.9-213.8-61.1-392.7-58.9-394.9c2.2-2.2,161.4,24,353.4,58.9c192,32.7,370.9,61.1,399.2,63.3h48v-469c0-431.9-2.2-469-37.1-469c-21.8,0-181.1,24-355.6,54.5c-462.5,78.5-416.7,122.2-344.7-320.7c32.7-207.3,61.1-383.9,61.1-392.7c0-10.9-211.6-17.4-469-17.4c-405.8,0-469,4.4-469,32.7c0,19.6,26.2,192,56.7,384c30.5,192,50.2,355.6,45.8,360c-6.6,6.5-183.3-17.5-394.9-52.4l-384-61.1v475.6v477.8l72-13.1c224.7-39.3,702.5-113.4,709-109.1c4.4,4.4-96,658.8-115.6,748.3l-10.9,48h479.9C5265.5,4558,5481.5,4555.8,5481.5,4553.6z"/><path d="M3513.7,1549.6c-67.6-21.8-157.1-61.1-200.7-87.3c-124.4-78.5-268.3-253.1-309.8-379.6c-19.6-63.3-39.3-120-43.6-126.5c-4.4-8.7-98.2,10.9-209.4,39.3c-176.7,48-235.6,52.4-464.7,43.6c-412.3-15.3-676.3-126.5-977.3-408C867.5,221,677.7-392,832.6-895.9c102.5-338.1,176.7-451.6,988.3-1498.7l407.9-527.9l-126.5-122.2c-233.4-222.5-318.5-451.6-303.2-818.1c8.7-213.8,17.5-248.7,89.4-399.2c100.4-216,244.3-366.5,427.6-458.1l144-69.8h2530.6h2530.6l124.3,50.2c172.3,69.8,342.5,231.3,436.3,412.3c98.2,189.8,130.9,322.9,128.7,541c0,305.4-100.4,545.4-314.1,748.3l-122.2,113.5l578.1,746.1c604.3,783.2,722.1,968.6,818.1,1282.8c39.3,126.5,50.2,211.6,50.2,381.8c-4.4,272.7-50.2,462.5-176.7,728.6c-82.9,172.3-128.7,235.6-285.8,394.9c-325.1,325.1-654.5,451.6-1138.8,429.8c-148.3-6.6-316.3-28.4-410.1-54.5c-113.4-30.6-161.4-37.1-168-19.6c-69.8,257.4-253,471.2-479.9,562.9l-130.9,52.4l-1396.2,4.4C3734.1,1588.9,3629.4,1586.7,3513.7,1549.6z M6352,947.5c34.9-17.4,67.6-48,76.4-65.4c6.5-19.6,13.1-194.2,13.1-384c0-322.9,2.2-349.1,39.3-338.1c336,104.7,986.1,257.4,1141,268.3c333.8,21.8,602.1-100.4,794.1-360c148.3-202.9,229.1-510.5,187.6-715.6c-52.3-264-133.1-381.8-1125.7-1662.3L7085-2815.7H5001.6H2918.2l-569.4,737.4c-842.1,1086.4-901,1175.9-949,1433.3c-65.4,355.6,200.7,809.4,582.5,994.8c137.4,67.6,168,72,357.8,74.2c183.3,0,261.8-15.3,687.2-128.7c264-69.8,493-133.1,508.3-137.4c19.6-8.7,26.2,69.8,26.2,346.9c0,370.9,6.5,399.2,98.2,449.4c30.5,17.5,442.9,24,1337.3,26.2C6090.2,980.2,6299.6,975.9,6352,947.5z M7482-3474.5c170.2-187.6,150.5-567.2-34.9-678.5c-58.9-34.9-226.9-37.1-2445.5-37.1c-2052.9,0-2388.8,4.4-2441.2,32.7c-144,74.2-205.1,394.9-111.3,578.1c85.1,165.8-135.3,152.7,2563.3,152.7h2425.9L7482-3474.5z"/></g></g>
</svg>