<?xml version="1.0" encoding="utf-8"?>
<!-- Svg Vector Icons : http://www.onlinewebfonts.com/icon -->
<!DOCTYPE svg PUBLIC "-//W3C//DTD SVG 1.1//EN" "http://www.w3.org/Graphics/SVG/1.1/DTD/svg11.dtd">
<svg version="1.1" xmlns="http://www.w3.org/2000/svg" xmlns:xlink="http://www.w3.org/1999/xlink" x="0px" y="0px" viewBox="0 0 1000 1000" enable-background="new 0 0 1000 1000" xml:space="preserve">
<metadata> Svg Vector Icons : http://www.onlinewebfonts.com/icon </metadata>
<g><g transform="translate(0.000000,511.000000) scale(0.100000,-0.100000)"><path d="M4594.8,4968.6c-111.1-50.1-176.4-117.6-228.7-233c-28.3-61-58.8-95.8-95.8-104.5c-76.2-19.6-209.1-141.6-241.7-224.3c-21.8-47.9-30.5-174.2-30.5-409.4c0-365.8,17.4-444.2,117.6-544.4l54.4-54.4l-61-32.7c-34.8-17.4-91.5-54.4-124.1-82.8c-37-30.5-117.6-65.3-193.8-80.6c-572.7-115.4-975.6-653.3-886.3-1184.7c34.8-213.4,132.8-402.9,365.9-709.9c200.3-263.5,209.1-278.8,217.8-400.7s74-300.5,143.7-392c23.9-30.5,26.1-61,10.9-130.7c-19.6-87.1-28.3-95.8-180.8-163.3c-263.5-119.8-383.3-287.5-383.3-540.1c-2.2-270,141.6-437.7,494.3-583.6l209.1-84.9l-13.1-78.4c-80.6-453-263.5-1056.2-422.5-1402.5c-47.9-104.5-93.7-222.1-102.4-263.5c-10.9-58.8-24-74.1-80.6-84.9c-91.5-19.6-533.5-265.7-620.6-348.4c-91.5-84.9-119.8-137.2-298.3-579.3c-119.8-294-145.9-378.9-148.1-483.5c-2.2-243.9,174.2-472.6,415.9-540.1c108.9-28.3,4862.8-30.5,4969.5,0c285.3,78.4,463.8,361.5,411.6,646.8c-24,117.6-407.2,829.7-509.6,936.4c-58.8,63.1-472.6,311.4-574.9,344.1c-26.1,8.7-45.7,41.4-54.4,95.8c-6.5,43.6-52.3,167.7-100.2,272.2c-163.3,350.6-372.4,1036.6-422.5,1385l-13.1,98l222.1,95.8c352.8,152.5,481.3,307.1,479.1,574.9c0,252.6-122,424.6-383.3,537.9c-152.4,67.5-161.1,74-178.5,161.1c-17.4,80.6-13.1,102.4,50.1,204.7c69.7,115.4,115.4,276.6,115.4,396.3c0,47.9,52.3,130.7,198.2,320.1c228.7,294,337.5,503,372.4,714.3c89.3,533.5-309.2,1067.1-886.3,1189c-71.9,15.2-159,50.1-193.8,78.4c-32.7,28.3-91.5,67.5-128.5,87.1c-56.6,28.3-61,37-30.5,54.4c19.6,10.9,61,61,91.5,113.2c52.3,89.3,54.4,106.7,54.4,459.5c0,350.6-2.2,370.2-54.4,459.5c-52.3,91.5-169.9,182.9-233,182.9c-17.4,0-61,56.6-95.8,124.1c-52.3,104.5-82.8,135-180.7,185.1c-111.1,58.8-128.5,61-435.5,61C4738.5,5010,4668.8,5001.3,4594.8,4968.6z M5239.4,4563.6c0-17.4-10.9-104.5-24-196c-13.1-91.5-19.6-169.9-13.1-176.4c8.7-10.9,198.2,15.2,337.5,45.7c47.9,10.9,47.9,8.7,47.9-239.6c0-137.2-2.2-250.4-4.4-250.4c-4.4,0-89.3,15.2-191.6,32.7c-102.4,17.4-189.5,32.7-193.8,32.7c-8.7,0,13.1-180.7,34.9-285.3l13.1-63.2h-228.7c-126.3,0-233,4.4-239.6,10.9c-4.3,6.5,2.2,84.9,15.3,174.2c15.2,89.3,24,163.3,21.8,163.3c-2.2,0-61-10.9-132.8-21.8c-69.7-13.1-161.2-28.3-198.2-34.8l-71.9-10.9v252.6c0,248.3,0,250.4,50.1,239.6c82.8-17.4,304.9-54.4,331-54.4c19.6,0,19.6,39.2-2.2,159c-50.1,276.6-67.5,254.8,209.1,254.8C5195.8,4596.2,5239.4,4589.7,5239.4,4563.6z M5598.7,2888.9c91.5-39.2,119.8-91.5,119.8-228.7c0-61,4.4-111.1,10.9-111.1c4.4,0,71.9,34.9,148.1,76.2c76.2,41.4,165.5,76.2,198.2,76.2c206.9,0,468.2-304.9,470.4-546.6c0-141.5-69.7-261.3-392-679.4l-285.3-365.9l43.6-56.6c50.1-61,56.6-117.6,24-182.9c-21.8-39.2-56.6-41.4-932.1-41.4c-679.5,0-916.8,6.5-936.4,26.1c-39.2,39.2-30.5,135,19.6,198.2l43.6,56.6l-285.3,365.9c-326.7,422.5-392,535.7-392,686c0,265.7,226.5,540.1,446.4,540.1c54.4,0,130.7-26.1,222.1-76.2c76.2-41.4,143.7-76.2,148.1-76.2c6.5,0,10.9,50.1,10.9,111.1c0,243.9,37,257,714.3,259.1C5402.7,2919.4,5539.9,2912.9,5598.7,2888.9z M5783.8,79.6V-57.5l202.5-89.3c108.9-47.9,239.6-102.3,285.3-122c52.3-21.8,78.4-43.6,65.3-54.4c-10.9-10.9-139.4-69.7-283.1-130.7l-265.7-111h-790.5H4205l-267.9,115.4c-148.1,61-267.9,124.1-267.9,135c2.2,13.1,124.1,74,274.4,139.4l272.2,115.4V79.6V219h784h784V79.6z M5696.7-1227c0-172,265.7-1056.2,422.5-1413.3c30.5-69.7,56.6-130.7,56.6-135c0-6.5-529.2-10.9-1176-10.9s-1176,6.5-1176,13.1c0,6.5,34.9,91.5,76.2,187.3c150.3,339.7,402.9,1197.7,402.9,1365.4c0,45.7,4.4,45.7,696.9,45.7h696.9V-1227z M6774.7-3450.4c100.2-54.4,193.8-115.4,209.1-135c17.4-19.6,104.6-167.7,196-331l165.5-296.2l-1171.6-6.5c-646.8-2.2-1703-2.2-2347.6,0l-1173.8,6.5l135,322.3l132.8,322.3l185.1,106.7l185.1,104.5l1650.7,2.2l1652.9,2.2L6774.7-3450.4z"/></g></g>
</svg>