<?xml version="1.0" encoding="utf-8"?>
<!-- Svg Vector Icons : http://www.onlinewebfonts.com/icon -->
<!DOCTYPE svg PUBLIC "-//W3C//DTD SVG 1.1//EN" "http://www.w3.org/Graphics/SVG/1.1/DTD/svg11.dtd">
<svg version="1.1" xmlns="http://www.w3.org/2000/svg" xmlns:xlink="http://www.w3.org/1999/xlink" x="0px" y="0px" viewBox="0 0 1000 1000" enable-background="new 0 0 1000 1000" xml:space="preserve">
<metadata> Svg Vector Icons : http://www.onlinewebfonts.com/icon </metadata>
<g><g transform="translate(0.000000,511.000000) scale(0.100000,-0.100000)"><path d="M4738.7,4983.9c0-15.2,15.2-115.4,32.7-222.1s26.1-200.4,21.8-206.9c-10.9-8.7-335.4,32.7-407.3,54.4c-37,10.9-39.2-10.9-39.2-261.3v-272.2l61,10.9c291.8,54.4,396.4,65.3,396.4,43.6c0-13.1-15.2-106.7-32.7-209.1c-17.4-102.4-32.7-198.2-32.7-211.3c0-21.8,67.5-28.3,261.3-28.3c300.5,0,278.7-28.3,228.7,272.2c-17.4,106.7-28.3,196-26.1,198.2c2.2,2.2,104.5-13.1,228.7-32.7l222.1-39.2v272.2c0,270,0,270-47.9,259.2c-106.7-26.1-389.8-65.3-398.5-56.6c-4.4,6.5,4.4,98,21.8,204.7c17.4,108.9,32.7,209.1,32.7,224.3c0,19.6-67.5,26.1-261.3,26.1C4806.2,5010,4738.7,5003.5,4738.7,4983.9z"/><path d="M4346.7,3418c-87.1-34.8-130.7-87.1-143.7-174.2l-13.1-80.6l-243.9-8.7c-209.1-6.5-257-17.4-352.8-65.3c-287.5-150.3-396.3-448.6-261.3-718.7c30.5-63.2,202.5-304.9,383.3-535.7l328.8-420.3l-56.6-65.3c-71.9-87.1-69.7-161.2,8.7-239.6l63.2-63.2H5000h940.8l63.1,63.2c78.4,78.4,80.6,152.4,8.7,239.6l-56.6,65.3l328.8,420.3c178.6,230.8,350.6,468.2,381.1,527c63.2,124.1,74.1,318,24,435.6c-45.7,108.9-161.2,226.5-283.1,291.8c-95.8,47.9-143.7,58.8-352.8,65.3l-241.8,8.7l-19.6,89.3c-13.1,56.6-41.4,104.5-80.6,132.8c-58.8,43.6-91.5,45.7-686,50.1C4642.9,3437.6,4379.3,3431.1,4346.7,3418z"/><path d="M4115.8,269L4118-7.6l-309.2-132.8c-172-71.9-311.4-135-311.4-141.6s169.9-82.7,376.7-169.9l374.6-156.8H5000h751.3l376.8,156.8c204.7,87.1,374.6,163.3,374.6,169.9s-139.4,69.7-311.4,141.6L5882-7.6l2.2,276.6v276.6H5000h-884.2V269z"/><path d="M4248.7-1179.2c-4.4-28.3-26.1-143.7-43.6-257c-82.8-498.7-276.6-1171.6-453-1578.9l-95.8-217.8l672.9-6.5c368-2.2,973.5-2.2,1343.7,0l670.7,6.5l-84.9,193.8c-182.9,418.1-378.9,1088.9-461.7,1591.9c-21.8,119.8-41.4,239.6-47.9,267.9l-8.7,47.9H5000h-740.4L4248.7-1179.2z"/><path d="M2894.1-3936.3l-219.9-124.1l-143.7-348.4c-78.4-191.6-143.7-355-143.7-363.7c0-10.9,1176-17.4,2613.3-17.4c1437.3,0,2613.3,6.5,2613.3,13.1c0,6.6-89.3,172.1-196,363.7l-198.2,352.8l-224.3,126.3L6770.5-3810H4943.4l-1827.2-2.2L2894.1-3936.3z"/></g></g>
</svg>