<?xml version="1.0" encoding="utf-8"?>
<!-- Svg Vector Icons : http://www.onlinewebfonts.com/icon -->
<!DOCTYPE svg PUBLIC "-//W3C//DTD SVG 1.1//EN" "http://www.w3.org/Graphics/SVG/1.1/DTD/svg11.dtd">
<svg version="1.1" xmlns="http://www.w3.org/2000/svg" xmlns:xlink="http://www.w3.org/1999/xlink" x="0px" y="0px" viewBox="0 0 1000 1000" enable-background="new 0 0 1000 1000" xml:space="preserve">
<metadata> Svg Vector Icons : http://www.onlinewebfonts.com/icon </metadata>
<g><g transform="translate(0.000000,511.000000) scale(0.100000,-0.100000)"><path d="M6264.1,5033.5c-207-39.6-297.3-70.5-480.1-160.8c-149.7-74.9-156.3-77.1-275.3-50.6c-213.6,46.3-902.9,55.1-1191.4,13.2C2553.3,4579.8,1130.6,3384,553.7,1672.8C397.3,1208.2,289.4,642.2,201.3-177.1C113.2-991.9,100-1276,100-2247.2c0-1057.1,19.8-1319.2,145.4-1949c74.9-372.2,121.1-475.7,257.7-572.6l96.9-66.1h3283.5h3285.8l92.5,50.6c127.7,66.1,209.2,196,222.4,343.6c15.4,193.8-15.4,248.8-284.1,497.7c-381,354.6-658.5,706.9-988.8,1255.3c-209.2,347.9-477.9,887.5-634.2,1277.3c-105.7,264.3-319.3,902.9-308.3,916.1c4.4,2.2,77.1-13.2,160.8-37.4c226.8-66.1,546.2-61.7,869.9,11c484.5,107.9,766.4,136.5,947,101.3c191.6-37.4,781.8-405.2,1112.1-693.7c72.7-63.9,163-129.9,198.2-147.6c169.6-85.9,352.4-66.1,486.7,52.9c116.7,103.5,526.3,596.8,649.7,784c165.2,251.1,207,400.8,207,742.2c0,253.3-8.8,303.9-59.5,447.1c-33,90.3-92.5,218-132.1,286.3c-96.9,167.4-387.6,455.9-583.6,583.6c-257.7,167.4-585.8,442.7-896.3,751c-376.6,376.6-607.8,656.3-865.5,1048.3c-116.7,176.2-237.8,354.6-273.1,398.6l-61.7,79.3l103.5,99.1c57.3,52.9,147.5,132.1,200.4,171.8c268.7,204.8,229,603.4-74.9,755.4C7059.1,5035.7,6541.6,5086.3,6264.1,5033.5z M6508.5,4278.1c-191.6-233.4-240-361.2-187.2-499.9c11-30.8,79.3-121.1,152-196c70.5-77.1,231.2-292.9,354.6-480.1c259.9-387.6,306.1-447.1,599-781.8c392-447.1,885.3-894.1,1279.5-1158.4c255.5-171.8,411.8-330.3,497.7-506.5c123.3-253.3,110.1-519.7-35.3-737.8c-88.1-132.1-405.2-513.1-425-513.1c-11,0-121.1,79.3-248.8,174c-288.5,218-786.2,515.3-955.8,572.6c-284.1,94.7-704.7,81.5-1305.9-46.3C5751,3.5,5546.2,32.2,5354.6,223.8c-99.1,96.9-178.4,275.3-204.8,453.7c-50.6,337-149.7,455.9-367.8,438.3c-103.5-6.6-129.9-19.8-191.6-88.1c-105.7-114.5-127.7-220.2-110.1-537.4c57.3-1105.5,605.6-2607.5,1387.4-3803.3c182.8-279.7,455.8-636.4,603.4-788.4l101.3-105.7H3729.3H886.2L862-4094.9c-105.7,484.5-145.3,1008.7-143.1,1880.7C721-701.2,884,695.1,1148.3,1470.2c462.5,1354.4,1519.6,2341,2858.5,2666.9c488.9,121.1,1057.1,140.9,1444.7,55.1c262.1-57.3,301.7-59.5,385.4-13.2c41.9,24.2,134.3,74.9,204.8,114.5c160.8,90.3,297.3,127.7,462.5,129.9l129.9,2.2L6508.5,4278.1z"/><path d="M5891.9,2809.2c-160.8-72.7-240.1-207-226.8-389.8c24.2-323.7,385.4-480.1,634.2-270.9c138.7,116.7,178.4,312.7,96.9,482.3C6314.7,2802.6,6070.3,2888.5,5891.9,2809.2z"/></g></g>
</svg>