<?xml version="1.0" encoding="utf-8"?>
<!-- Svg Vector Icons : http://www.onlinewebfonts.com/icon -->
<!DOCTYPE svg PUBLIC "-//W3C//DTD SVG 1.1//EN" "http://www.w3.org/Graphics/SVG/1.1/DTD/svg11.dtd">
<svg version="1.1" xmlns="http://www.w3.org/2000/svg" xmlns:xlink="http://www.w3.org/1999/xlink" x="0px" y="0px" viewBox="0 0 1000 1000" enable-background="new 0 0 1000 1000" xml:space="preserve">
<metadata> Svg Vector Icons : http://www.onlinewebfonts.com/icon </metadata>
<g><g transform="translate(0.000000,511.000000) scale(0.100000,-0.100000)"><path d="M6047.9,5048.5c-171.8-24.2-379-77.1-511.2-134.4c-83.7-35.3-130-41.9-224.7-30.8c-211.5,26.4-775.6,13.2-1035.5-22C2516,4614.5,1064.1,3389.5,497.8,1677.5C270.9,992.3,156.3,188.1,110.1-1063.4c-50.7-1344,94.7-2738.7,334.9-3214.6c132.2-264.4,453.9-495.7,755.7-544.2c81.5-13.2,1200.8-22,2886.3-22c3036.1,0,2899.5-4.4,3170.5,138.8c387.8,204.9,612.5,656.6,546.4,1088.4c-46.3,293-121.2,414.2-489.1,777.8c-343.7,339.3-526.6,586.1-802,1075.2c-160.8,288.6-323.9,638.9-301.8,652.2c26.4,17.6,456.1,101.4,513.4,101.4c70.5,0,489.1-266.6,698.4-442.9c229.1-191.7,376.8-277.6,570.6-319.5c293-66.1,577.3-11,832.8,158.6c204.9,136.6,733.7,775.6,879.1,1066.4c200.5,398.8,249,881.3,132.2,1333c-46.3,174.1-187.3,471.5-306.3,636.7c-132.2,182.9-385.6,423-597.1,564c-226.9,152-367.9,266.6-645.6,539.8c-235.8,226.9-478.1,502.3-590.5,667.6l-63.9,97l83.7,167.4c306.3,616.9-15.4,1317.6-694,1511.5C6719.9,5055.1,6343.1,5086,6047.9,5048.5z M6719.9,4486.7c403.2-85.9,572.9-255.6,572.9-577.3c0-149.8-72.7-277.6-235.8-416.4l-132.2-112.4l196.1-293c224.7-339.3,282-412,570.6-727.1c255.6-279.8,592.7-579.5,863.7-768.9c112.4-77.1,242.4-176.3,290.8-218.1c484.7-436.3,645.6-1070.8,407.6-1623.8c-55.1-130-260-407.6-511.2-694c-213.7-244.6-323.9-310.7-511.2-310.7c-154.2,0-273.2,52.9-442.9,200.5c-154.2,132.2-603.7,438.4-766.7,522.2c-108,52.9-125.6,55.1-356.9,44.1c-156.4-8.8-323.9-33-473.7-72.7c-182.9-46.3-284.2-59.5-489.1-61.7c-143.2-2.2-260-8.8-260-17.6c0-30.9,169.7-493.5,242.4-656.6c132.2-304.1,370.1-764.5,520-1006.9c242.4-392.2,438.5-641.1,727.1-923.2c297.4-290.8,339.3-356.9,339.3-548.6c0-213.7-103.6-376.7-297.4-464.9l-110.2-52.9H4078.2c-2130.6,0-2804.8,6.6-2875.3,26.4c-55.1,17.6-130,68.3-191.7,127.8c-85.9,85.9-108,125.6-147.6,275.4c-165.2,623.5-238,1489.4-218.1,2555.8C667.5-204.1,749,545,914.2,1186.2c423,1630.4,1634.8,2787.1,3263.1,3113.2c290.8,59.5,876.9,79.3,1132.5,39.7c187.3-28.6,187.3-28.6,319.5,30.8C5944.3,4513.1,6371.8,4559.4,6719.9,4486.7z"/><path d="M6021.4,4068.1c-123.4-33.1-323.9-127.8-383.3-178.5c-30.9-26.4-57.3-26.4-198.3,4.4c-116.8,26.4-273.2,37.5-548.6,39.7c-456.1,2.2-680.8-33-1112.7-174.1C2454.3,3327.8,1524.6,2221.7,1246.9,752.1c-196.1-1040-246.8-2738.7-110.2-3789.6c44.1-334.9,130-764.5,163-804.2c24.2-28.6,394.4-33.1,2762.9-33.1c2099.7,0,2743.1,6.6,2762.9,26.4c55.1,55.1,17.6,114.6-233.5,365.7C6182.3-3075,5847.4-2588,5512.5-1913.8c-458.3,918.8-724.9,1835.3-705,2434.6l6.6,198.3l37.5-185.1c68.3-337.1,215.9-546.4,471.5-667.6c237.9-112.4,356.9-108,978.2,26.4c262.2,57.3,630.1,61.7,766.7,13.2c202.7-72.7,918.8-546.4,1048.8-691.8c83.7-94.8,149.8-66.1,332.7,143.2c383.4,438.4,475.9,601.5,491.3,868.1c13.2,215.9-46.3,420.8-174,614.7c-92.5,138.8-196.1,229.1-520,456.1c-341.5,242.4-802,685.2-1150.1,1106c-63.9,77.1-202.7,271-310.7,431.8c-108,160.8-244.6,350.3-304,423l-110.2,132.2l101.3,123.4c57.3,66.1,169.6,178.5,253.4,246.8c149.8,127.8,182.9,196.1,119,249C6746.3,4092.3,6244,4127.6,6021.4,4068.1z M6147,2424.4c108-61.7,163-158.6,163-288.6c0-171.9-127.8-304-310.7-319.5c-85.9-8.8-121.2,0-180.6,41.9c-171.9,116.8-218.1,271-130,434C5779.1,2461.9,5977.4,2519.2,6147,2424.4z"/></g></g>
</svg>