<?xml version="1.0" encoding="utf-8"?>
<!-- Svg Vector Icons : http://www.onlinewebfonts.com/icon -->
<!DOCTYPE svg PUBLIC "-//W3C//DTD SVG 1.1//EN" "http://www.w3.org/Graphics/SVG/1.1/DTD/svg11.dtd">
<svg version="1.1" xmlns="http://www.w3.org/2000/svg" xmlns:xlink="http://www.w3.org/1999/xlink" x="0px" y="0px" viewBox="0 0 1000 1000" enable-background="new 0 0 1000 1000" xml:space="preserve">
<metadata> Svg Vector Icons : http://www.onlinewebfonts.com/icon </metadata>
<g><g transform="translate(0.000000,511.000000) scale(0.100000,-0.100000)"><path d="M6408.1,5058.5c-174.4-28.7-379.8-106-534.4-200.9l-147.9-88.3l-154.6,35.3c-598.4,134.7-1382.3,77.3-2095.5-156.8C1819.6,4106.8,651.5,2702.4,318.1,858.6C66.4-539.1,26.6-2703.1,229.8-4061c59.6-406.3,141.3-730.9,189.9-766.2c30.9-24.3,673.5-28.7,3409.3-28.7c3733.9,0,3466.8-11,3466.8,141.3c0,61.8-17.7,88.3-132.5,176.7c-318,249.5-814.8,870-1165.9,1455.1c-556.4,929.6-976,1978.5-1161.5,2908.1c-68.5,337.8-117,894.3-86.1,984.8c22.1,61.8,22.1,59.6,37.5-46.4c57.4-417.3,198.7-693.3,450.5-872.2c258.3-187.7,605-227.4,1055.5-123.6c587.4,134.7,995.9,167.8,1223.3,103.8c236.3-68.5,976-543.2,1320.4-847.9c165.6-147.9,187.7-143.5,404.1,101.6c245.1,276,477,578.5,541,704.4c216.4,426.2,130.3,940.6-220.8,1333.7c-70.6,77.3-231.9,209.8-382,313.5c-421.7,291.5-711,547.6-1229.9,1086.4c-289.3,302.5-454.9,512.3-748.5,953.9c-139.1,209.8-309.1,443.8-377.6,518.9l-123.7,134.7l101.6,136.9c95,125.9,331.2,346.7,459.3,430.6c64,44.2,83.9,108.2,53,178.9C7260.4,5032,6737.1,5113.7,6408.1,5058.5z M6231.5,2951.9c198.7-103.8,282.6-346.7,183.3-538.8c-123.6-245.1-432.8-302.5-627.1-119.2c-92.8,88.3-125.9,165.6-125.9,295.9c0,145.7,68.4,267.2,189.9,340C5951,2991.7,6136.5,3000.5,6231.5,2951.9z"/></g></g>
</svg>