<?xml version="1.0" encoding="utf-8"?>
<!-- Svg Vector Icons : http://www.onlinewebfonts.com/icon -->
<!DOCTYPE svg PUBLIC "-//W3C//DTD SVG 1.1//EN" "http://www.w3.org/Graphics/SVG/1.1/DTD/svg11.dtd">
<svg version="1.1" xmlns="http://www.w3.org/2000/svg" xmlns:xlink="http://www.w3.org/1999/xlink" x="0px" y="0px" viewBox="0 0 1000 1000" enable-background="new 0 0 1000 1000" xml:space="preserve">
<metadata> Svg Vector Icons : http://www.onlinewebfonts.com/icon </metadata>
<g><g transform="translate(0.000000,511.000000) scale(0.100000,-0.100000)"><path d="M4693.2,4997.4C3564.1,4851.3,2672.5,4033.9,2435,2926.6c-50.1-231.1-56.7-767.3-10.9-991.8c102.5-523.2,333.5-965.6,704.1-1353.7c106.8-111.2,185.3-207.1,174.4-213.6c-10.9-6.5-346.6-148.2-745.5-318.3c-401.1-167.8-752-320.4-780.4-340.1c-141.7-93.7-148.2-346.6-10.9-473c24-19.6,414.2-198.4,869.7-396.7c453.4-198.4,832.7-368.4,841.4-377.1c6.5-8.7-146-671.4-344.4-1473.6c-385.8-1580.4-381.5-1545.5-268.1-1667.5c106.8-113.3,45.8-111.2,2134-111.2c2123.1,0,2029.4-6.5,2142.7,128.6c45.8,54.5,58.8,93.7,58.8,170c0,82.8-187.5,885-610.3,2600.5c-45.8,185.3-78.5,344.4-69.8,353.1c8.7,8.7,388,178.7,841.4,377.1c455.6,198.3,845.8,377.1,869.7,396.7c61,56.7,102.5,148.2,102.5,224.5c0,89.4-58.9,211.4-119.9,252.9C8187.5-269,7840.9-118.6,7442,49.2c-398.9,167.8-734.6,309.5-745.5,318.3c-13.1,6.5,61,98.1,161.3,202.7c333.5,344.4,553.7,736.8,673.6,1196.7c63.2,237.6,67.6,281.2,67.6,636.5s-4.4,398.9-67.6,636.5c-255,976.5-1009.3,1700.2-1992.4,1916C5318.8,5003.9,4900.3,5025.7,4693.2,4997.4z M5338.5,4363.1c791.3-139.5,1451.7-776,1608.7-1549.9c54.5-261.6,45.8-643-17.5-893.7c-119.9-475.2-418.5-900.3-817.4-1170.5c-242-165.7-170-154.8-1116.1-154.8h-854.5l-122.1,67.6c-368.4,207.1-686.6,564.6-854.5,956.9c-165.7,390.2-202.7,865.4-98.1,1268.7c191.8,745.5,786.9,1312.2,1538.9,1467C4780.4,4389.2,5164.1,4395.8,5338.5,4363.1z M6633.3-282.1c322.6-135.2,586.4-250.7,586.4-257.2c0-6.5-194-102.5-433.8-211.4l-436-202.7h-1321H3710.1l-451.2,196.2c-248.5,109-457.8,204.9-466.5,213.6c-8.7,8.7,246.3,124.3,566.8,259.4l582,244.1L4994-38h1052.9L6633.3-282.1z M5870.3-1552.9c0-4.4,137.3-571.1,305.2-1257.7c167.8-686.6,309.5-1270.8,316.1-1297l10.9-50.1H4998.4c-826.1,0-1504.1,4.4-1504.1,6.5c0,4.4,141.7,588.5,316.1,1299.2c174.4,710.6,316.1,1294.8,316.1,1299.2c0,6.5,392.4,10.9,871.9,10.9C5478-1542,5870.3-1546.4,5870.3-1552.9z"/></g></g>
</svg>