<?xml version="1.0" encoding="utf-8"?>
<!-- Svg Vector Icons : http://www.onlinewebfonts.com/icon -->
<!DOCTYPE svg PUBLIC "-//W3C//DTD SVG 1.1//EN" "http://www.w3.org/Graphics/SVG/1.1/DTD/svg11.dtd">
<svg version="1.1" xmlns="http://www.w3.org/2000/svg" xmlns:xlink="http://www.w3.org/1999/xlink" x="0px" y="0px" viewBox="0 0 1000 1000" enable-background="new 0 0 1000 1000" xml:space="preserve">
<metadata> Svg Vector Icons : http://www.onlinewebfonts.com/icon </metadata>
<g><g transform="translate(0.000000,511.000000) scale(0.100000,-0.100000)"><path d="M4662.4,4983.6c-899.5-141.6-1611.7-788.4-1842.5-1674.8c-58.8-226.5-78.4-649-41.4-882.1c100.2-622.9,457.4-1191.3,967-1531.1l126.3-84.9H5000h1128.2l126.3,84.9c614.2,409.5,988.8,1123.8,988.8,1875.2C7243.3,4134.2,6008.4,5192.7,4662.4,4983.6z"/><path d="M2970.2-154.2c-487.9-204.7-893-387.7-899.5-405.1c-6.5-17.4,0-43.6,15.2-58.8c15.2-13.1,413.8-193.8,884.2-398.6l855.9-372.4H5000h1173.9l855.9,372.4c470.4,204.7,869,385.5,884.2,398.6c15.2,15.2,21.8,41.4,15.2,58.8c-6.5,17.4-413.8,200.4-906,407.3l-895.1,374.6l-1134.7-2.2H3856.6L2970.2-154.2z"/><path d="M3834.8-1981.5c-4.4-15.3-165.5-640.3-359.4-1387.4c-272.2-1058.5-344.1-1363.4-324.5-1387.3c37-43.6,3661.1-45.8,3698.2-2.2c17.4,21.8-63.2,368.1-333.2,1411.3l-355,1380.8l-1158.7,6.5C4087.5-1955.4,3843.5-1959.7,3834.8-1981.5z"/></g></g>
</svg>