<?xml version="1.0" encoding="utf-8"?>
<!-- Svg Vector Icons : http://www.onlinewebfonts.com/icon -->
<!DOCTYPE svg PUBLIC "-//W3C//DTD SVG 1.1//EN" "http://www.w3.org/Graphics/SVG/1.1/DTD/svg11.dtd">
<svg version="1.1" xmlns="http://www.w3.org/2000/svg" xmlns:xlink="http://www.w3.org/1999/xlink" x="0px" y="0px" viewBox="0 0 1000 1000" enable-background="new 0 0 1000 1000" xml:space="preserve">
<metadata> Svg Vector Icons : http://www.onlinewebfonts.com/icon </metadata>
<g><g transform="translate(0.000000,511.000000) scale(0.100000,-0.100000)"><path d="M4751.5,4997.4c-468.9-34.9-1308.5-248.6-1476.4-377.3c-115.6-89.4-200.6-218.1-229-355.5c-26.2-130.8-4.4-244.3,119.9-639l52.3-165.7L2996,3449c-246.4-13.1-414.4-67.6-593.2-194.1c-119.9-87.2-1618.1-1919.1-1725-2108.8c-194.1-348.9-176.6-774.2,48-1105.7c50.2-72,331.5-458,628.1-854.9l538.7-726.2l-43.6-128.7c-91.6-272.6-78.5-601.9,34.9-854.9l54.5-122.1l-154.8-150.5c-178.8-170.1-224.6-250.8-274.8-460.1c-104.7-444.9,6.5-870.1,307.5-1175.4c161.4-163.6,327.1-257.3,547.4-314c163.6-41.4,246.4-43.6,2529.7-43.6c1629,0,2396.7,6.5,2477.4,24c283.5,58.9,604.1,279.2,761.1,523.4c170.1,266.1,226.8,588.8,161.4,913.8c-52.3,261.7-93.8,338-279.1,521.2l-163.6,159.2l56.7,122.1c28.3,65.4,65.4,185.4,76.3,263.9l24,143.9l165.7-6.5c307.5-15.3,427.4,80.7,693.5,556.1c300.9,540.8,482,1070.8,562.6,1633.4c43.6,320.6,32.7,1029.3-21.8,1317.2c-143.9,767.6-440.5,1417.5-913.7,2006.3C7597.4,4504.5,6197.4,5106.4,4751.5,4997.4z M5370.8,4412.9c1711.9-161.4,3101.1-1419.7,3434.7-3109.8c61.1-305.3,80.7-839.6,43.6-1134c-34.9-285.7-128.7-645.5-237.7-913.7c-85-207.2-458-905-484.1-905c-10.9,0-318.4,209.3-721.8,492.9l-165.7,117.8l-50.2-80.7c-26.2-45.8-89.4-137.4-139.6-202.8c-48-65.4-96-130.8-104.7-146.1c-10.9-17.4,19.6-45.8,89.4-80.7c277-141.8,390.4-442.7,268.2-724c-58.9-137.4-126.5-202.8-292.2-285.7l-126.5-63.3l366.4-344.6c200.6-189.7,375.1-359.8,383.8-375.1c8.7-15.3,21.8-91.6,30.5-167.9c17.4-189.7-34.9-340.2-159.2-464.5c-170.1-172.3-26.2-163.6-2660.6-157c-2226.6,6.5-2335.6,8.7-2407.6,48c-233.3,124.3-346.7,338-318.4,599.7l15.3,122.1l381.6,370.7l383.8,372.9l-113.4,52.3c-460.2,215.9-464.5,826.5-6.5,1029.3c80.7,34.9,89.4,45.8,69.8,78.5c-17.4,28.3-54.5,39.2-139.6,39.2c-87.2,2.2-146.1,19.6-233.3,67.6c-104.7,58.9-170.1,137.4-741.5,909.4C1351.7,75.3,1100.9,433,1085.6,483.1c-32.7,122.1-26.2,266.1,19.6,368.6c45.8,96,1513.5,1914.7,1609.4,1991.1c63.2,48,246.4,109,331.5,109c89.4,0,207.2-39.3,290.1-96l76.3-50.2l154.8,85.1c87.2,48,157,98.1,157,111.2c0,15.3-48,277-109,580.1c-58.9,305.3-104.7,558.3-102.5,560.5c2.2,2.2,119.9,39.2,259.5,80.7C4382.9,4408.6,4834.4,4463.1,5370.8,4412.9z"/><path d="M4694.8,3963.7c-320.6-45.8-617.2-109-647.7-137.4c-13.1-10.9,100.3-649.9,119.9-669.5c2.2-4.4,58.9,6.5,122.1,24c479.8,126.5,1014.1,87.2,1589.8-115.6c396.9-141.8,684.8-331.5,996.6-665.1c519-549.6,780.7-1199.4,778.5-1923.5c-2.2-322.8-41.4-573.5-135.2-870.1c-37.1-111.2-65.4-213.7-65.4-224.6c0-21.8,444.9-344.6,508.1-368.6c41.4-15.3,207.2,320.6,309.7,630.3c115.6,346.8,148.3,606.3,135.2,1059.9c-13.1,407.8-37.1,562.6-150.5,918.1c-368.5,1162.4-1369.5,2049.9-2584.2,2292C5445,3957.1,4860.5,3987.7,4694.8,3963.7z"/><path d="M4494.2,2768.6c-85-17.5-207.2-48-272.6-67.6c-133-43.6-388.2-157-388.2-170.1c0-6.5,423.1-298.8,939.9-649.9c970.5-660.8,1099.1-763.3,1195.1-963.9C6127.6,590,6036,129.9,5767.8-116.6c-106.9-96-218.1-148.3-1308.5-615l-1195.1-512.5l93.8-93.8c52.3-52.3,150.5-135.2,218.1-185.4c69.8-50.2,122.1-93.8,119.9-96c-2.2-2.2-183.2-85-403.4-183.2l-399.1-181l6.5-67.6c6.5-63.2,26.2-76.3,394.7-257.3l388.2-191.9l-246.4-235.5c-135.2-130.8-386-368.6-556.1-529.9c-172.3-161.4-311.8-307.5-311.8-327.1c0-17.5,10.9-43.6,26.2-58.9c37.1-37.1,4555.7-37.1,4592.7,0c15.3,15.3,26.2,41.4,26.2,63.2c0,19.6-244.3,268.3-545.2,553.9c-298.8,283.5-545.2,523.4-545.2,532.1c0,8.7,161.4,93.8,359.8,187.6c198.5,93.8,375.1,189.7,396.9,211.5c72,78.5,15.3,126.5-344.6,285.7c-495,220.3-464.5,183.2-283.5,316.2c639,477.6,1044.6,1445.9,939.9,2250.6c-124.3,970.4-791.6,1735.9-1718.4,1978C5209.5,2794.8,4740.6,2814.4,4494.2,2768.6z"/><path d="M2256.7,1588.8c-423.1-519-734.9-922.5-734.9-946.5c0-24,130.8-218.1,290-431.8C1971-3.2,2228.3-352.1,2383.2-563.6c157-211.5,300.9-392.5,320.6-399.1C2747.4-978,5368.7,138.6,5460.3,208.4c74.1,58.9,115.6,146.1,130.8,285.7c17.4,154.8-37.1,285.7-167.9,390.4c-198.5,159.2-2355.3,1609.4-2392.3,1609.4C3004.7,2493.8,2736.5,2179.8,2256.7,1588.8z M3142.1,1946.4c80.7-41.4,124.3-113.4,124.3-205c0-80.7-32.7-128.7-403.4-599.7c-471.1-597.5-525.6-654.2-630.2-654.2c-139.6,0-259.5,163.6-211.5,290c30.5,78.5,865.8,1131.8,924.7,1164.6C3006.9,1977,3081,1977,3142.1,1946.4z M3593.5,1567c119.9-61.1,165.7-189.7,104.7-300.9c-52.3-100.3-543-734.9-582.3-756.7c-85-43.6-176.6-26.2-255.2,52.3c-130.8,130.8-117.8,167.9,209.4,608.4C3392.9,1604.1,3445.2,1643.3,3593.5,1567z M3981.7,1183.2c161.4-56.7,178.8-224.6,43.6-423.1c-178.8-259.5-255.1-307.5-394.7-239.9c-154.8,72-172.3,213.7-45.8,396.9C3776.7,1198.4,3833.4,1235.5,3981.7,1183.2z M5122.2,670.7c76.3-80.7,67.6-194.1-19.6-272.6c-39.2-34.9-89.4-63.2-115.6-63.2c-80.7,0-167.9,61.1-191.9,137.4C4725.3,679.4,4973.9,827.7,5122.2,670.7z"/></g></g>
</svg>