<?xml version="1.0" encoding="utf-8"?>
<!-- Svg Vector Icons : http://www.onlinewebfonts.com/icon -->
<!DOCTYPE svg PUBLIC "-//W3C//DTD SVG 1.1//EN" "http://www.w3.org/Graphics/SVG/1.1/DTD/svg11.dtd">
<svg version="1.1" xmlns="http://www.w3.org/2000/svg" xmlns:xlink="http://www.w3.org/1999/xlink" x="0px" y="0px" viewBox="0 0 1000 1000" enable-background="new 0 0 1000 1000" xml:space="preserve">
<metadata> Svg Vector Icons : http://www.onlinewebfonts.com/icon </metadata>
<g><g transform="translate(0.000000,511.000000) scale(0.100000,-0.100000)"><path d="M4745,4999.2c-745.5-119.9-1336.1-656.1-1523.6-1386.3c-56.7-222.3-52.3-640.8,8.7-871.9c65.4-244.1,218-538.4,372.7-725.8l133-156.9l-69.8-32.7c-39.2-19.6-252.8-109-473-202.7c-438.1-183.1-479.5-213.6-497-377.1c-8.7-76.3,0-111.2,41.4-172.2c45.8-67.6,117.7-104.6,606-318.2c514.4-224.5,555.8-248.5,549.3-294.3c-2.2-28.3-48-252.8-102.4-499.2c-396.7-1822.2-560.2-2567.7-571.1-2609.1c-8.7-41.4-26.1-50.1-91.5-50.1c-135.1,0-241.9-41.4-540.6-209.2c-180.9-102.4-311.7-191.8-353.1-242c-37.1-43.6-141.7-265.9-239.8-510c-141.7-348.8-176.6-453.4-176.6-544.9c0-176.6,41.4-279,163.5-405.4c189.6-194-30.5-180.9,3018.9-180.9c2977.5,0,2818.3-8.7,2990.5,148.2c122.1,109,191.8,263.8,191.8,427.2c0,109-24,185.3-176.5,558c-98.1,239.8-207.1,468.6-242,510c-69.8,85-584.2,385.8-725.8,425c-47.9,13.1-122.1,24-165.6,24c-69.7,0-82.8,8.7-95.9,61c-37.1,152.6-664.8,3042.9-669.2,3093c-6.5,52.3,19.6,67.6,547.1,298.6c621.2,270.3,645.2,289.9,645.2,470.8c0,176.6-37.1,204.9-492.6,396.7c-220.2,93.7-433.8,183.1-473,202.7l-69.7,32.7l132.9,156.9c154.8,187.4,305.2,479.5,372.8,725.8c69.7,263.7,65.4,673.5-13.1,932.9c-128.6,431.6-374.9,782.5-717.1,1015.7c-150.4,102.4-435.9,231-612.5,272.5C5250.7,5005.7,4906.3,5023.2,4745,4999.2z M5350.9,4399.8c527.5-165.7,913.3-677.9,913.3-1211.9c0-381.4-213.6-784.7-531.9-1013.6l-139.5-98.1H5000h-592.9l-139.5,98.1c-255,183.1-433.8,455.5-499.1,765.1c-43.6,204.9-41.4,340,10.9,540.6c61,241.9,159.1,414.1,337.9,590.7c263.7,265.9,579.8,390.2,937.3,372.7C5163.5,4436.8,5296.4,4417.2,5350.9,4399.8z M5937.3,1376.5c174.4-71.9,324.8-139.5,333.5-148.2c8.7-10.9-119.9-78.5-289.9-150.4l-305.2-135.2H5000h-675.7l-305.2,133c-167.8,74.1-300.8,141.7-294.3,148.2c6.5,6.5,152.6,74.1,322.6,148.2l309.5,133l632.1,2.2l634.3,2.2L5937.3,1376.5z M5553.7,317.2c6.5-34.9,154.7-712.8,329.1-1508.3c172.2-795.6,309.5-1453.9,305.2-1462.6c-6.5-8.7-544.9-15.3-1201-17.4H3796.8l10.9,58.9c6.5,30.5,154.8,710.6,329.1,1512.7c174.4,799.9,318.2,1458.2,318.2,1464.8c0,6.5,244.1,10.9,542.7,10.9h542.7L5553.7,317.2z M7114.3-3388.3l222.3-126.4l139.5-337.9c76.3-185.3,139.5-344.4,139.5-353.1c0-10.9-1177.1-17.4-2615.6-17.4c-1438.6,0-2615.6,6.5-2615.6,17.4c0,8.7,63.2,167.8,139.5,353.1l139.5,337.9l215.8,124.2l213.6,122.1l1898.5,2.2l1898.5,2.2L7114.3-3388.3z"/></g></g>
</svg>