<?xml version="1.0" encoding="utf-8"?>
<!-- Svg Vector Icons : http://www.onlinewebfonts.com/icon -->
<!DOCTYPE svg PUBLIC "-//W3C//DTD SVG 1.1//EN" "http://www.w3.org/Graphics/SVG/1.1/DTD/svg11.dtd">
<svg version="1.1" xmlns="http://www.w3.org/2000/svg" xmlns:xlink="http://www.w3.org/1999/xlink" x="0px" y="0px" viewBox="0 0 1000 1000" enable-background="new 0 0 1000 1000" xml:space="preserve">
<metadata> Svg Vector Icons : http://www.onlinewebfonts.com/icon </metadata>
<g><g transform="translate(0.000000,511.000000) scale(0.100000,-0.100000)"><path d="M4705.7,4989.6C3559,4769.4,2987.9,3496.3,3585.2,2500c91.6-152.6,294.3-375,431.6-475.2l106.8-78.5H5000h876.4l104.6,76.3c442.5,324.8,704.1,882.9,669.3,1427.9c-26.2,370.6-135.2,658.4-361.9,943.9c-209.3,261.6-555.9,486.2-885.1,571.2C5215.8,5013.5,4888.8,5024.4,4705.7,4989.6z"/><path d="M3495.8,1242.1c-342.3-143.9-627.8-272.5-636.6-285.6c-10.9-13.1-15.3-37.1-10.9-54.5c2.2-17.5,276.9-150.4,645.3-311.8l640.9-279h863.3h863.3l636.6,276.9c351,152.6,643.1,289.9,647.5,305.2c6.5,15.3,6.5,41.4,0,56.7c-4.4,13.1-296.5,146.1-647.5,294.3l-636.6,266l-872-2.2l-872-2.2L3495.8,1242.1z"/><path d="M4110.6-227.2c-119.9-412-767.4-2849.3-767.4-2892.9v-56.7H5000h1656.8v61c0,32.7-176.6,710.7-390.2,1508.6l-388,1449.7l-872,6.5l-872,4.4L4110.6-227.2z"/><path d="M2822.2-3948.5c-113.4-65.4-218-139.5-231.1-167.8c-32.7-63.2-272.5-645.3-272.5-662.7c0-6.5,1207.7-10.9,2681.4-10.9c1475.9,0,2681.4,6.5,2681.4,13.1c0,10.9-45.8,122.1-222.4,547.2l-65.4,159.1L7180-3950.7l-213.6,119.9H4997.8l-1970.7-2.2L2822.2-3948.5z"/></g></g>
</svg>