<?xml version="1.0" encoding="UTF-8"?><svg id="Layer_2" xmlns="http://www.w3.org/2000/svg" viewBox="0 0 823.2 979.99"><defs><style>.cls-1{fill:none;stroke:#231f20;stroke-miterlimit:10;stroke-width:50px;}</style></defs><path class="cls-1" d="m433.6,183.54c.06,67.06-52.45,123.76-117.06,130.64-74.97,7.98-145.71-53.31-145.79-130.64-.07-70.28,58.23-131.43,131.43-131.43,72.97,0,131.37,60.77,131.43,131.43Z"/><path class="cls-1" d="m228.9,320.95c-17.8,3.63-119.92,25.03-119.65,52.73.24,23.97,64.27,54.91,121.68,50.7,29.04-2.13,34.92-11.69,69.16-12.19,42.03-.61,51.74,13.53,85.76,14.83,53.27,2.03,108.59-29.53,108.71-51.31.16-28.93-95.61-50.1-107.48-52.73-64.11-14.17-120.03-9.07-158.18-2.03Z"/><path class="cls-1" d="m28.14,905c2.81-45.73,14.26-98.25,52.73-123.7,60.53-40.05,166.32,1.25,166.97-2.06.48-2.47-62.45-5.93-84.62-45.06-4.42-7.8-6.06-19.91-9.35-44.14-3.57-26.31-6.78-50-5.05-80.71,1.46-25.81,3.09-54.81,17.94-88.12,7.64-17.13,21.93-49.18,56.06-72.49,12.52-8.56,62.09-42.41,111.54-20.28,38.99,17.45,52.15,58.2,54.75,66.92"/><path class="cls-1" d="m577.71,909.05c-7.12-47.69-24.11-102.74-67.95-127.76-65.76-37.53-167.69,6.37-170.28-3.13-1.72-6.33,43.65-15.94,70.89-57.84,9.67-14.87,14.99-30.63,14.32-30.97-1.07-.53-16.66,38.79-33.97,58.93-25.91,30.15-85.62,52.22-234.83,14.75"/><path class="cls-1" d="m565.36,855.75c15.45,24.35,17.95,41.4,12.34,53.3-19,40.32-122.56,3.4-300.13,6.08-140.66,2.13-230.87,27.64-249.44-10.14-7.26-14.77-.6-33.19,6.59-46.97"/></svg>