<?xml version="1.0" encoding="utf-8"?>
<!-- Svg Vector Icons : http://www.onlinewebfonts.com/icon -->
<!DOCTYPE svg PUBLIC "-//W3C//DTD SVG 1.1//EN" "http://www.w3.org/Graphics/SVG/1.1/DTD/svg11.dtd">
<svg version="1.1" xmlns="http://www.w3.org/2000/svg" xmlns:xlink="http://www.w3.org/1999/xlink" x="0px" y="0px" viewBox="0 0 1000 1000" enable-background="new 0 0 1000 1000" xml:space="preserve">
<metadata> Svg Vector Icons : http://www.onlinewebfonts.com/icon </metadata>
<g><g transform="translate(0.000000,511.000000) scale(0.100000,-0.100000)"><path d="M4858.4,4995.4c-189.6-50.1-366-200.5-451-383.5c-76.3-167.8-71.9-435.8,10.9-603.6c106.8-217.9,300.7-346.4,542.6-361.7c274.5-17.4,499,113.3,621,361.7c52.3,106.8,61,150.4,61,309.4c0,217.9-50.1,350.8-180.8,485.9C5309.4,4962.7,5047.9,5045.5,4858.4,4995.4z"/><path d="M3226.4,3023.5c-115.5-209.2-209.2-387.9-209.2-400.9s63.2-67.5,139.4-122c244-174.3,546.9-553.4,677.6-849.8l54.5-124.2l-43.6-56.7c-54.5-69.7-58.8-235.3-8.7-307.2c78.4-113.3,82.8-113.3,1163.5-113.3c1080.7,0,1085.1,0,1163.5,113.3c50.1,71.9,45.7,237.5-8.7,307.2l-43.6,56.7l54.5,124.2c130.7,296.3,433.6,675.5,677.6,849.8c76.3,54.5,139.5,109,139.5,122c0,50.1-418.4,780-446.7,780c-17.4,0-93.7-32.7-167.8-69.7c-128.5-67.5-152.5-71.9-357.3-71.9c-204.8,0-226.6,4.4-361.7,74.1l-143.8,71.9l-148.2-71.9c-139.5-69.7-163.4-74.1-368.2-74.1c-207,0-224.4,4.4-355.2,74.1l-135.1,74.1l-146-74.1c-137.3-69.7-159.1-74.1-363.9-74.1c-204.8,0-228.8,4.4-357.3,71.9c-74.1,37.1-150.4,69.7-167.8,69.7C3448.6,3402.7,3341.9,3232.7,3226.4,3023.5z"/><path d="M4115.4,271.6l2.2-276.7L3808.1-138c-172.1-71.9-311.6-135.1-311.6-141.6c0-6.5,169.9-82.8,376.9-170l374.8-156.9H5000h751.7l376.9,156.9c204.8,87.2,374.8,163.4,374.8,170c0,6.5-139.5,69.7-311.6,141.6L5882.5-5.1l2.2,276.7v276.7H5000h-884.6V271.6z"/><path d="M4248.3-1177.4c-4.4-28.3-26.2-143.8-43.6-257.1c-82.8-499-276.7-1172.2-453.2-1579.7l-95.9-217.9l673.3-6.5c368.2-2.2,974-2.2,1344.4,0l671.1,6.5l-85,193.9c-183,418.3-379.1,1089.4-461.9,1592.8c-21.8,119.8-41.4,239.7-47.9,268l-8.7,47.9H5000h-740.8L4248.3-1177.4z"/><path d="M2893-3935.9l-220.1-124.2l-143.8-348.6c-78.4-191.7-143.8-355.2-143.8-363.9c0-10.9,1176.6-17.4,2614.7-17.4c1438.1,0,2614.7,6.5,2614.7,13.1c0,6.5-89.3,172.1-196.1,363.9l-198.3,353l-224.5,126.4l-224.4,124.2H4943.3l-1828.1-2.2L2893-3935.9z"/></g></g>
</svg>