<?xml version="1.0" encoding="utf-8"?>
<!-- Svg Vector Icons : http://www.onlinewebfonts.com/icon -->
<!DOCTYPE svg PUBLIC "-//W3C//DTD SVG 1.1//EN" "http://www.w3.org/Graphics/SVG/1.1/DTD/svg11.dtd">
<svg version="1.1" xmlns="http://www.w3.org/2000/svg" xmlns:xlink="http://www.w3.org/1999/xlink" x="0px" y="0px" viewBox="0 0 1000 1000" enable-background="new 0 0 1000 1000" xml:space="preserve">
<metadata> Svg Vector Icons : http://www.onlinewebfonts.com/icon </metadata>
<g><g transform="translate(0.000000,511.000000) scale(0.100000,-0.100000)"><path d="M4716.1,4996.7c-290.4-63.3-521.9-185.6-718.4-386.5c-120.1-122.3-272.9-358.1-297-460.7c-8.7-34.9-24-61.1-32.8-61.1c-8.7,0-72.1,24-137.6,54.6c-386.5,176.9-877.8,146.3-1253.4-80.8c-157.2-93.9-371.2-323.2-460.7-491.3c-72.1-135.4-157.2-423.6-157.2-530.6v-56.8h-222.7c-395.2-2.2-700.9-122.3-956.4-379.9C222.3,2347.9,100,2042.2,100,1664.5c0-342.8,89.5-598.3,303.5-858.2c109.2-131,369-321,500-364.7l74.2-24l545.9-1360.4l543.7-1360.4l-85.2-139.7c-172.5-286.1-255.5-694.4-211.8-1050.3c78.6-657.2,491.3-1155.1,1056.9-1273c128.8-26.2,480.4-32.8,2172.7-32.8c1273,0,2072.3,8.7,2161.8,21.8c375.6,59,751.2,349.4,932.4,720.6c120.1,242.4,159.4,397.4,174.7,676.9c19.7,360.3-56.8,672.5-233.6,967.3l-87.3,144.1L8485-925.2c535,1336.4,537.2,1342.9,609.2,1366.9c222.7,74.2,526.2,347.2,652.9,587.4C9865,1254,9900,1402.5,9900,1664.5c0,377.8-122.3,683.5-380,938.9c-255.5,257.7-559,377.8-941.1,379.9h-231.5l-24,157.2c-85.2,550.3-491.3,978.2-1035,1087.4c-299.1,61.1-572.1,30.6-838.5-93.9l-135.4-63.3l-89.5,185.6c-72.1,148.5-124.5,222.7-259.9,355.9c-185.6,183.4-307.9,262-545.9,340.6C5220.5,5020.7,4917,5038.1,4716.1,4996.7z M5334.1,4376.5c353.8-166,545.9-572.1,443.3-934.6c-37.1-131-161.6-338.5-233.7-388.7c-37.1-26.2-28.4-74.2,179.1-875.6c120.1-467.3,220.5-851.6,222.7-856c8.8-6.5,452,1137.7,452,1161.7c0,8.7-30.6,78.6-67.7,155c-200.9,406.1,28.4,895.3,480.4,1028.5c347.1,100.4,738-78.6,895.3-408.3c48-102.6,56.8-150.7,56.8-318.8c0-183.4-6.6-209.6-76.4-347.2c-69.9-139.7-190-264.2-336.3-349.4c-32.8-19.6-34.9-85.2-30.6-727.1l6.6-703.1l268.6,316.6l266.4,314.4l-24,104.8c-50.2,220.5,48,513.1,224.9,672.5c152.9,137.6,303.5,196.5,519.7,196.5c155,0,205.3-10.9,307.9-59c172.5-78.6,290.4-194.3,373.4-362.5c65.5-131,72.1-166,72.1-331.9c0-152.9-10.9-207.4-59-307.9c-100.4-218.4-329.7-397.4-548.1-425.8l-96.1-13.1L7956.6-757.1l-676.9-1672.6l89.5-67.7c104.8-80.8,183.4-190,264.2-366.9c72.1-159.4,98.3-486.9,52.4-685.6c-59-266.4-216.2-493.5-419.3-607l-115.7-63.3l-2094.1-6.5c-1867-4.4-2107.2-2.2-2201.1,30.6c-117.9,39.3-301.3,192.2-382.1,321c-128.8,203.1-187.8,535-139.8,790.5c34.9,190,155,421.4,281.7,541.5l107,98.3L2045.6-763.7L1368.7,917.7l-83,10.9c-224.9,30.6-460.7,207.4-561.2,428c-48,100.4-59,155-59,307.9c0,166,6.5,200.9,72.1,331.9c83,168.1,200.9,283.9,373.4,362.5c102.6,48,152.9,59,307.9,59c155,0,205.3-10.9,312.3-59c307.9-144.1,502.2-506.6,430.2-803.6l-26.2-109.2l235.8-277.3c128.8-155,251.1-299.1,275.1-323.2c37.1-41.5,39.3-21.8,39.3,676.9v720.6l-100.4,52.4c-115.7,63.3-227.1,190-297,342.8c-69.9,150.7-72.1,454.2-2.2,602.7c65.5,144.1,229.3,312.3,375.6,382.1c107,52.4,148.5,61.1,318.8,61.1c166,0,216.2-10.9,321-59c390.9-181.2,556.8-657.3,355.9-1017.5c-30.6-52.4-54.6-107-54.6-120.1c0-13.1,100.4-283.9,222.7-600.5c163.8-425.8,227.1-565.6,240.2-537.2c8.7,24,115.7,397.4,235.8,834.1l218.4,792.7l-107,107c-59,59-135.4,163.8-170.3,233.6c-52.4,111.4-61.1,150.7-61.1,323.2c0,174.7,6.5,211.8,69.9,342.8c107,229.3,305.7,393,545.9,454.2C4945.4,4474.8,5183.4,4448.6,5334.1,4376.5z"/><path d="M4812.2,3957.3c-115.7-59-183.4-176.9-183.4-321c0-120.1,52.4-220.5,159.4-299.1c87.3-65.5,314.4-65.5,399.6,0c117.9,87.3,150.7,152.9,150.7,303.5c0,148.5-32.8,216.2-148.5,303.5C5104.8,4007.5,4923.6,4014,4812.2,3957.3z"/><path d="M2825.1,3195.2c-102.6-63.3-139.8-128.8-139.8-248.9c0-146.3,48-229.3,166-281.7c266.4-117.9,517.5,115.7,414.9,386.5C3198.5,3223.6,2984.5,3293.5,2825.1,3195.2z"/><path d="M6845.1,3193c-312.3-205.3-56.8-672.5,290.4-535c231.5,93.9,246.8,432.3,26.2,545.9C7072.2,3249.8,6923.7,3245.4,6845.1,3193z"/><path d="M4949.8,2828.3c-4.4-10.9-190-672.5-410.5-1473.9c-220.5-803.6-408.3-1458.6-414.9-1458.6c-6.5,0-214,517.5-458.6,1148.6c-390.9,1013.2-473.8,1198.8-511,1161.7c-4.4-4.4-10.9-395.2-13.1-869.1c-2.2-473.8-10.9-1061.2-17.5-1305.8l-13.1-441.1l-611.4,729.3c-554.6,663.8-692.2,805.7-670.4,687.8c2.2-17.5,307.9-779.5,674.7-1694.5l670.4-1666.1H5000h1825.5l668.2,1666.1c369,914.9,674.7,1677,676.9,1694.5c24,120.1-115.7-21.8-670.4-685.6c-526.2-628.9-613.6-725-626.7-681.3c-6.5,26.2-13.1,615.8-15.3,1310.2c-2.2,1244.6-2.2,1259.9-45.8,1259.9c-24,0-43.7-8.7-43.7-19.6c0-21.8-866.9-2264.4-895.3-2314.6c-13.1-24-24-10.9-37.1,43.7c-10.9,39.3-185.6,716.2-388.7,1500.1l-366.9,1423.7h-61.1C4986.9,2843.6,4954.1,2837.1,4949.8,2828.3z"/><path d="M1272.6,1937.4c-207.4-89.5-209.6-428-4.4-539.4c207.4-111.4,456.4,34.9,456.4,270.8C1724.6,1891.6,1488.8,2031.3,1272.6,1937.4z"/><path d="M8430.4,1930.9c-268.6-144.1-157.2-572.1,146.3-572.1c179.1,0,310.1,128.8,310.1,305.7C8886.8,1904.7,8644.4,2044.4,8430.4,1930.9z"/><path d="M3021.7-2980c-128.8-131-128.8-493.5,0-624.5c34.9-35,176.9-37.1,1984.9-37.1c2185.8,0,2015.5-13.1,2076.6,168.1c58.9,172.5,30.5,382.1-65.5,489.1c-37.1,41.5-87.3,41.5-1998,41.5C3198.5-2942.9,3056.6-2945.1,3021.7-2980z"/></g></g>
</svg>