<?xml version="1.0" encoding="utf-8"?>
<!-- Svg Vector Icons : http://www.onlinewebfonts.com/icon -->
<!DOCTYPE svg PUBLIC "-//W3C//DTD SVG 1.1//EN" "http://www.w3.org/Graphics/SVG/1.1/DTD/svg11.dtd">
<svg version="1.1" xmlns="http://www.w3.org/2000/svg" xmlns:xlink="http://www.w3.org/1999/xlink" x="0px" y="0px" viewBox="0 0 1000 1000" enable-background="new 0 0 1000 1000" xml:space="preserve">
<metadata> Svg Vector Icons : http://www.onlinewebfonts.com/icon </metadata>
<g><g transform="translate(0.000000,511.000000) scale(0.100000,-0.100000)"><path d="M4761.8,4977.4c-355.4-95.9-599.7-366.3-662.9-741.4c-50.2-294.4,63.2-614.9,292.2-822.1l128.7-117.8l-229-1273.5c-126.5-700-229-1282.2-229-1293.1c0-72-72,122.1-370.7,1007.5l-331.5,987.8l82.9,165.7c82.9,161.4,85,172.3,85,396.9c0,211.5-4.4,242.1-63.2,362c-139.6,283.5-388.2,449.2-702.2,464.5c-407.8,21.8-724-194.1-839.5-569.1c-122.1-392.5,39.3-804.7,390.3-1000.9c69.8-41.4,117.8-82.9,122.1-111.2c15.3-76.3,187.5-2202.4,178.8-2211.2c-4.4-4.4-207.2,283.5-453.6,641.1l-444.8,647.6l32.7,137.4c39.3,170.1,10.9,383.8-74.1,551.7c-307.5,606.2-1175.4,606.2-1482.8,2.2C27.6,1878.7,88.7,1471,337.3,1213.6c119.9-122.1,231.1-183.2,438.3-233.3l154.8-37.1l758.9-1840.4c416.5-1014,758.9-1851.4,758.9-1864.4c0-10.9-52.3-67.6-115.6-124.3c-353.3-307.5-449.2-963.8-211.5-1437c93.8-185.4,220.3-311.8,390.3-396.9l143.9-69.8h2366h2366l104.7,48c231.2,106.8,388.1,294.4,490.6,582.2c78.5,215.9,80.7,582.2,8.7,813.4c-58.9,191.9-200.6,405.6-331.5,503.7c-54.5,41.4-100.3,80.7-104.7,89.4c-6.5,17.5,1495.9,3667.8,1519.9,3691.8c8.7,8.7,67.6,26.2,133,39.2c364.2,69.8,610.6,320.6,680.4,695.6c43.6,233.3-39.2,523.3-200.6,708.7c-303.1,344.5-876.6,362-1199.3,37.1c-237.7-237.7-318.4-571.3-213.7-887.5c6.5-21.8-876.6-1323.6-891.9-1310.6c-6.5,8.7,165.7,2137,181,2211.2c4.4,28.3,52.3,69.8,122.1,111.2c63.2,34.9,159.2,111.2,209.3,165.7c344.5,372.9,279.1,987.8-135.2,1271.3c-235.5,161.4-582.2,185.4-843.9,56.7c-172.3-85-305.3-222.4-386-394.7c-52.3-109-58.9-150.5-58.9-355.4c0-224.6,2.2-235.5,82.9-394.7l82.9-165.7L6310,1754.4c-181-536.4-335.8-990-346.7-1007.5c-13.1-24-444.9,2490.3-440.5,2577.5c0,10.9,45.8,69.8,104.7,130.8c497.2,519,224.6,1404.3-473.2,1535.2C4999.5,5018.8,4905.7,5016.7,4761.8,4977.4z M5191.4,4491.1c43.6-21.8,96-58.9,115.6-80.7c189.7-215.9,137.4-577.9-100.3-702.2c-187.5-96-386-69.8-525.5,69.8c-218.1,215.9-170.1,569.1,98.1,710.9C4886.1,4545.7,5082.3,4545.7,5191.4,4491.1z M2936.6,3586.2c115.6-87.2,150.5-167.9,139.6-331.5c-10.9-165.7-54.5-237.7-191.9-307.5c-259.5-133-545.2,41.4-545.2,331.5c0,231.2,176.6,392.5,407.8,375.1C2827.6,3649.4,2882.1,3629.8,2936.6,3586.2z M7463.6,3612.3c263.8-133,263.8-534.3,0-665.1c-52.3-28.3-130.8-50.1-174.5-50.1c-98.1,0-257.3,78.5-311.8,154.8c-85,117.8-85,338,0,451.4c63.2,85,198.4,157,300.9,157C7328.4,3660.3,7411.2,3638.5,7463.6,3612.3z M5158.7,2685.6c379.4-2315.8,638.9-3840.1,649.8-3827c8.7,8.7,285.7,819.9,617.1,1803.4c333.6,983.5,612.7,1796.8,623.7,1807.7c13.1,13.1,26.2,4.4,34.9-19.6c8.7-21.8-58.9-913.7-148.3-1982.2c-89.4-1068.5-161.4-1945.1-159.2-1949.5c2.2-2.2,410,584.4,905,1304C8298.8,718.6,8591,1124.2,8606.2,1109c15.3-15.3-15.3-113.4-95.9-309.6C8444.9,640.1,8096-205.9,7734-1082.5l-656.4-1591.9H4999.5H2919.2l-638.9,1548.3c-942,2283.1-911.5,2211.1-887.5,2235.1c15.3,15.3,305.3-390.3,922.4-1286.6c495-719.6,902.8-1308.4,905-1308.4c4.4,0,2.2,45.8-2.2,104.7c-80.7,833-320.5,3848.8-307.5,3855.4c8.7,6.5,26.2,6.5,37.1,0c8.7-6.6,292.2-824.3,625.8-1816.5c444.9-1328,610.6-1790.3,619.3-1751c8.7,30.5,185.4,1003.1,392.5,2165.3l379.4,2108.7h56.7h54.5L5158.7,2685.6z M1122.3,2142.6c246.4-126.5,246.4-534.3-4.4-665.1c-93.8-52.3-261.7-54.5-364.2-4.4c-233.3,109-261.7,486.3-48,643.3C814.9,2199.3,989.3,2210.2,1122.3,2142.6z M9256.1,2142.6c124.3-63.2,209.3-248.6,181-399.1c-19.6-113.4-104.7-229-196.3-274.8c-113.4-52.3-305.3-37.1-401.2,32.7c-85,58.9-152.6,196.3-154.8,305.3c0,95.9,78.5,257.3,154.8,311.8C8950.8,2199.3,9123,2208,9256.1,2142.6z M7317.5-3383.1c76.3-89.4,111.2-205,111.2-359.8s-34.9-270.4-111.2-359.8l-54.5-65.4H5019.1c-2193.7,0-2243.9,0-2285.3,41.4c-95.9,95.9-122.1,178.8-122.1,383.8c0,198.4,26.2,285.7,115.6,388.1c30.5,34.9,167.9,37.1,2285.3,37.1H7263L7317.5-3383.1z"/></g></g>
</svg>