<?xml version="1.0" encoding="utf-8"?>
<!-- Svg Vector Icons : http://www.onlinewebfonts.com/icon -->
<!DOCTYPE svg PUBLIC "-//W3C//DTD SVG 1.1//EN" "http://www.w3.org/Graphics/SVG/1.1/DTD/svg11.dtd">
<svg version="1.1" xmlns="http://www.w3.org/2000/svg" xmlns:xlink="http://www.w3.org/1999/xlink" x="0px" y="0px" viewBox="0 0 1000 1000" enable-background="new 0 0 1000 1000" xml:space="preserve">
<metadata> Svg Vector Icons : http://www.onlinewebfonts.com/icon </metadata>
<g><g transform="translate(0.000000,511.000000) scale(0.100000,-0.100000)"><path d="M4746.6,4980.8c-202.7-50.1-411.9-170-557.9-329.1c-353.1-377-420.6-895.7-176.5-1349c47.9-89.4,80.6-161.3,71.9-161.3c-8.7,0-74.1,30.5-143.8,65.4c-235.4,119.9-525.2,74.1-706.1-111.1c-93.7-95.9-472.9-784.6-507.8-919.7c-32.7-132.9-13.1-276.8,58.8-425c43.6-91.5,91.5-141.7,215.8-233.2c135.1-100.2,220.1-187.4,359.6-366.1c19.6-28.3,30.5-104.6,30.5-239.7c2.2-167.8,10.9-220.1,58.8-322.6c32.7-67.6,93.7-163.4,139.5-213.6c113.3-126.4,98.1-174.4-80.6-244.1c-340-130.8-494.7-472.9-350.9-778c65.4-139.5,176.5-226.7,416.3-329.1l222.3-93.7l-13.1-80.6c-80.6-470.8-207-887-405.4-1346.9c-56.7-132.9-104.6-263.7-104.6-287.7c0-32.7-21.8-50.1-80.6-67.6c-45.8-10.9-200.5-89.3-344.3-170c-318.2-180.9-335.6-204.9-544.9-712.7c-137.3-333.4-152.6-383.6-150.4-512.2c2.2-215.8,111.2-385.8,313.8-492.5c71.9-39.2,183.1-41.4,2471.4-48c2724.3-6.5,2556.5-15.3,2739.5,165.6c143.8,143.8,202.7,346.5,150.4,525.3c-34.9,119.9-431.5,817.3-507.8,891.4c-61,58.9-459.9,296.4-566.7,337.8c-21.8,8.7-37.1,37.1-37.1,74.1c0,32.7-26.2,115.5-56.7,180.9c-174.4,372.7-333.5,858.7-422.8,1294.6c-24,117.7-43.6,222.3-43.6,231c0,8.7,93.7,56.7,209.2,106.8c257.2,111.1,333.5,167.8,407.5,305.1c78.5,143.8,93.7,272.4,50.1,418.4c-50.1,176.5-143.8,274.6-355.2,372.7C6294,216.6,6283.1,244.9,6402.9,380c43.6,47.9,104.6,141.7,137.3,209.2c47.9,102.4,56.7,154.7,58.8,320.4c0,193.9,2.2,202.7,78.5,305.1c93.7,126.4,185.2,215.8,329.1,313.8c204.9,143.8,305.1,385.8,259.4,619c-30.5,146-387.9,810.7-503.5,937.1c-183.1,196.2-470.7,246.3-712.6,122c-69.7-34.9-135.1-65.4-141.7-65.4c-8.7,0,28.3,85,82.8,191.8c174.4,344.4,174.4,699.6,4.4,1048.3c-91.5,187.4-331.3,429.3-505.6,512.2C5245.7,5009.1,4986.3,5039.6,4746.6,4980.8z M5250,4392.3c200.5-95.9,316-292,318.2-531.8c4.4-527.4-590.6-806.4-961.1-451.1c-215.8,207-252.8,547-82.8,793.3c74.1,109,255,235.4,359.6,252.8C4988.5,4475.1,5134.5,4449,5250,4392.3z M3818.2,2631.4c244.1-178.7,344.3-180.9,586.3-2.2c74.1,54.5,139.5,98.1,146,98.1c6.5,0,71.9-43.6,146-95.9c191.8-135.1,276.8-159.1,398.8-111.2c52.3,19.6,148.2,74.1,209.2,122.1c63.2,45.8,122,85,130.8,85s76.3-43.6,148.2-95.9c239.7-176.5,348.7-176.5,586.3-2.2c74.1,54.5,146,98.1,163.5,98.1c39.2,0,407.5-675.6,387.9-710.5c-8.7-15.3-76.3-71.9-150.4-126.4c-167.8-122.1-392.3-401-514.3-638.6c-89.4-176.5-89.4-178.7-48-224.5c61-67.5,56.7-200.5-8.7-270.2l-52.3-56.7h-967.7h-965.5l-45.8,71.9c-50.1,80.6-43.6,191.8,15.3,257.2c37,41.4,32.7,50.1-54.5,224.5c-117.7,233.2-335.6,505.6-510,634.2c-74.1,56.7-141.7,113.3-150.4,128.6c-19.6,34.9,346.5,710.5,387.9,710.5C3674.3,2727.3,3746.2,2683.7,3818.2,2631.4z M5760-29.7l-4.4-130.8l285.5-119.9c154.7-65.4,276.8-124.2,265.9-132.9c-8.7-10.9-133-67.6-276.8-126.4l-259.3-111.2h-778.1h-778l-259.4,111.2c-141.7,58.8-263.7,115.5-272.4,124.2c-8.7,8.7,109,69.7,261.5,137.3l276.8,119.9l4.4,117.7c2.2,65.4,4.4,126.4,4.4,137.3c2.2,8.7,346.5,13.1,769.3,10.9l767.1-6.5L5760-29.7z M5714.2-1483.4c82.8-403.2,241.9-891.4,429.4-1318.5c8.7-21.8-228.8-28.3-1148.6-28.3c-919.7,0-1157.3,6.5-1148.5,28.3c228.8,549.2,340,893.6,431.5,1331.6l47.9,231H4995h669.1L5714.2-1483.4z M6725.5-3473.2c100.2-54.5,196.1-115.5,213.6-135.1c41.4-48,344.3-592.8,344.3-618.9c0-10.9-991.6-19.6-2288.4-19.6c-1817.6,0-2288.4,6.5-2288.4,28.3c2.2,13.1,56.7,161.3,126.4,326.9l124.2,300.8l185.2,106.8l185.2,104.6l1608.4,2.2l1610.6,2.2L6725.5-3473.2z"/></g></g>
</svg>