<?xml version="1.0" encoding="utf-8"?>
<!-- Svg Vector Icons : http://www.onlinewebfonts.com/icon -->
<!DOCTYPE svg PUBLIC "-//W3C//DTD SVG 1.1//EN" "http://www.w3.org/Graphics/SVG/1.1/DTD/svg11.dtd">
<svg version="1.1" xmlns="http://www.w3.org/2000/svg" xmlns:xlink="http://www.w3.org/1999/xlink" x="0px" y="0px" viewBox="0 0 1000 1000" enable-background="new 0 0 1000 1000" xml:space="preserve">
<metadata> Svg Vector Icons : http://www.onlinewebfonts.com/icon </metadata>
<g><g transform="translate(0.000000,512.000000) scale(0.100000,-0.100000)"><path d="M2206,4988.2c-147.4-68.9-239.3-218.3-239.3-390.6c0-70.8-1.9-72.7-70.8-72.7c-185.7,0-361.9-120.6-405.9-277.6c-26.8-97.6-26.8-513.1,0-610.7c42.1-155.1,229.8-279.5,417.4-279.5c57.4,0,59.4-1.9,59.4-86.2v-86.2h-227.8c-126.4,0-250.8-7.6-275.7-17.2c-134-51.7-260.4-229.7-262.3-365.7c0-53.6,116.8-616.5,220.2-1066.4c7.7-36.4-7.7-49.8-105.3-93.8c-216.3-95.7-333.1-281.4-335-524.6c0-118.7,9.6-162.7,53.6-252.7c91.9-185.7,260.4-300.6,469.1-317.8l120.6-9.6l-11.5-97.6c-19.2-172.3-105.3-1139.2-105.3-1189v-47.9h1129.6h1131.5l-11.5,91.9C3737.6-543,3651.5,425.8,3651.5,485.1c0,55.5,3.8,57.4,82.3,57.4c214.4,0,451.8,172.3,520.8,381c40.2,126.4,32.5,342.7-17.2,442.3c-68.9,135.9-271.9,306.3-365.7,306.3c-15.3,0-28.7,15.3-28.7,34.5c0,19.1,47.9,248.9,107.2,513.1c113,505.4,126.4,633.7,74.7,737.1c-91.9,180-166.6,214.4-478.6,227.8l-248.9,9.6l-5.7,78.5l-5.7,78.5l113,9.6c130.2,13.4,202.9,45.9,287.2,132.1c90,91.9,103.4,160.8,95.7,488.2c-5.7,279.5-7.7,291-59.3,369.5c-67,99.6-210.6,174.2-340.8,174.2h-90l-7.7,124.4c-9.6,149.3-78.5,260.4-197.2,323.6c-68.9,36.4-114.9,40.2-440.3,45.9C2326.6,5022.6,2273,5018.8,2206,4988.2z M2939.3,4674.1c15.3-15.3,23-99.5,23-248.9v-225.9h227.8c170.4,0,231.7-5.7,248.9-26.8c15.3-17.2,21.1-99.6,17.2-243.2l-5.7-218.3l-239.3-9.6l-239.3-9.6l-5.7-254.6l-5.8-252.7l-329.3,3.8l-329.3,5.7l-5.7,254.6l-5.7,252.7h-235.5c-199.1,0-239.3,5.7-248.9,30.6c-5.8,17.2-11.5,114.9-11.5,218.3c0,250.8-1.9,248.9,279.5,248.9h218.3v212.5c0,116.8,9.6,227.8,19.2,248.9c19.1,32.5,44,36.4,312.1,36.4C2826.3,4697.1,2923.9,4689.5,2939.3,4674.1z M3837.2,1327.5c116.8-70.8,155.1-222.1,82.3-338.9c-76.6-126.4-30.6-122.5-1309.6-116.8l-1156.4,5.7l-51.7,47.9c-137.9,126.4-128.3,306.3,23,404c49.8,34.5,116.8,36.4,1202.3,36.4C3733.8,1365.8,3777.8,1363.9,3837.2,1327.5z"/><path d="M4704.5,4191.7c0-5.7,216.3-484.4,480.6-1064.5c467.2-1031.9,478.6-1056.8,455.7-1123.8c-26.8-84.2-13.4-266.1,28.7-344.6c28.7-57.4,28.7-59.3-49.8-141.7c-114.9-120.6-157-227.8-157-400.1c0-109.1,11.5-164.6,42.1-229.7c99.6-206.8,262.3-323.6,474.8-340.8c67-3.8,122.5-13.4,122.5-21.1c0-5.8-68.9-773.5-153.2-1705.9c-136-1476.1-158.9-1696.3-187.6-1711.6c-70.8-36.4-202.9-195.3-248.9-296.8c-67-141.7-70.8-367.6-9.6-501.6l40.2-88.1l-122.5-11.5c-208.7-15.3-381-153.2-438.4-346.5c-36.4-120.6-36.4-172.3,1.9-296.8c21.1-74.6,55.5-128.3,122.5-193.4c158.9-160.8,55.5-153.2,2004.6-153.2c1141.1,0,1738.4,7.7,1792,21c128.3,30.7,250.8,132.1,312.1,256.6c162.7,333.1-76.6,718-446.1,718h-82.3l40.2,101.5c49.8,120.6,53.6,327.4,9.6,451.9c-40.2,111-151.2,258.5-231.7,308.2c-55.5,34.5-65.1,51.7-76.6,139.8c-15.3,139.8-296.8,3249-296.8,3287.3c0,26.8,21.1,34.5,111,42.1c390.6,28.7,641.4,448,478.6,804.1c-26.8,57.4-78.5,135.9-116.8,172.3l-67,67l36.4,103.4c40.2,120.6,44.1,172.3,15.3,298.7l-19.1,91.9l471,1033.9c260.4,568.6,476.7,1045.4,482.5,1058.8c7.6,17.2-99.6,23-497.8,23h-505.4l-252.7-421.2l-252.7-421.2h-180c-99.6,0-181.9,7.7-181.9,15.3c0,9.6,34.5,187.6,76.6,396.3c42.1,208.7,76.6,392.5,76.6,405.9c0,19.2-130.2,24.9-689.2,24.9c-654.8,0-689.2-1.9-689.2-34.5c0-19.2,34.5-206.8,76.6-415.5c42.1-208.7,76.6-382.9,76.6-386.7s-84.2-3.8-185.7-1.9l-185.7,5.7l-248.9,417.4l-250.8,415.5H5208C4930.4,4199.3,4704.5,4195.5,4704.5,4191.7z M5759.4,3471.8c176.1-291,237.4-379.1,287.2-405.9c55.5-28.7,113-34.5,381-34.5c352.3,0,407.8,15.3,469.1,132.1c38.3,76.6,36.4,130.2-19.2,404c-26.8,130.2-47.9,247-47.9,260.4c0,21.1,57.4,26.8,287.2,26.8c158.9,0,287.2-7.7,287.2-17.2c0-7.7-21-120.6-47.9-250.8c-72.8-354.2-63.2-425,67-513.1c65.1-42.1,76.6-44,405.9-38.3c338.9,5.7,338.9,5.7,392.5,57.4c28.7,28.7,149.3,210.6,264.2,405.9l210.6,354.2l158.9,1.9c88.1,0,155.1-5.7,151.3-13.4c-3.8-9.6-157-344.6-338.9-748.6l-331.2-731.4l-1223.4,3.8l-1223.4,5.7l-333.1,735.2c-183.8,404-335,739-335,742.9s70.8,5.7,157,1.9l157-5.7L5759.4,3471.8z M8372.8,1285.4c55.5-61.3,65.1-86.2,65.1-166.6c0-65.1-11.5-107.2-40.2-143.6C8311.5,864.2,8347.9,868,7113,868c-1091.3,0-1137.3,1.9-1196.6,38.3c-122.5,74.7-162.7,220.2-91.9,338.9c74.6,126.3,11.5,120.6,1307.6,114.9l1175.5-3.8L8372.8,1285.4z"/><path d="M1461.2-1211.2c-5.8-49.8-11.5-122.5-11.5-162.7v-74.7h1187h1187l-11.5,139.8c-5.7,74.7-13.4,149.3-19.2,162.7c-5.7,17.2-254.6,23-1162.1,23H1474.6L1461.2-1211.2z"/><path d="M1403.8-1864.1c-5.7-40.2-28.7-283.4-51.7-541.8c-32.5-365.7-47.9-472.9-70.8-486.3c-82.3-47.9-181.9-164.6-237.4-275.7c-55.5-113-63.2-145.5-63.2-281.4c0-114.9,11.5-174.2,42.1-241.2l40.2-88.1l-118.7-9.6c-134-11.5-222.1-49.8-314-137.9c-204.9-189.5-204.9-499.7-3.8-700.7c160.8-162.7,42.1-155.1,2040.9-149.3l1759.5,5.7l101.5,55.5c170.4,95.7,252.7,237.4,252.7,438.4c0,273.8-210.6,486.3-486.3,490.1c-80.4,1.9-90,5.7-78.5,34.5c59.4,141.7,70.8,197.2,63.2,340.8c-11.5,195.3-67,310.2-218.3,448l-111,101.5l-47.9,534.2l-47.9,534.1H2634.8H1415.3L1403.8-1864.1z"/></g></g>
</svg>