<?xml version="1.0" encoding="utf-8"?>
<!-- Svg Vector Icons : http://www.onlinewebfonts.com/icon -->
<!DOCTYPE svg PUBLIC "-//W3C//DTD SVG 1.1//EN" "http://www.w3.org/Graphics/SVG/1.1/DTD/svg11.dtd">
<svg version="1.1" xmlns="http://www.w3.org/2000/svg" xmlns:xlink="http://www.w3.org/1999/xlink" x="0px" y="0px" viewBox="0 0 1000 1000" enable-background="new 0 0 1000 1000" xml:space="preserve">
<metadata> Svg Vector Icons : http://www.onlinewebfonts.com/icon </metadata>
<g><g transform="translate(0.000000,511.000000) scale(0.100000,-0.100000)"><path d="M2370.1,4907.6c4.3-58.8,32.7-435.6,61-842.8c37-531.4,58.8-744.8,80.6-764.4c15.2-15.3,217.8-150.3,450.8-302.7l422.5-274.4h1541.9h1544l442.1,287.5c241.7,159,444.3,296.2,450.8,304.9c6.5,8.7,34.8,346.3,61,751.3c28.3,405.1,56.6,781.8,63.2,840.6l13,102.4h-635.9h-633.7v-457.3v-457.3h-294h-294v457.3V5010h-707.8h-707.8v-457.3v-457.3l-385.5,4.4l-387.6,6.5l-6.5,453l-4.4,450.8h-542.3h-540.1L2370.1,4907.6z"/><path d="M3378.5,1797.8V1482h1546.2h1546.2v315.8v315.8H4924.7H3378.5V1797.8z"/><path d="M3737.8,802.5c-32.7-198.2-468.2-3758.8-463.9-3793.7c6.5-41.4,47.9-41.4,1657.3-41.4c908.1,0,1652.9,4.4,1657.3,8.7c4.3,4.4-102.4,879.8-235.2,1946.9L6109.4,861.3l-1178.2,6.5l-1180.3,4.4L3737.8,802.5z"/><path d="M2703.3-3844.8l-250.4-141.6l-165.5-402.9L2121.9-4790h2883.4c2589.4,0,2885.6,4.4,2872.5,32.7c-23.9,63.2-407.2,740.4-433.4,766.6c-15.3,13.1-132.9,84.9-265.7,156.8l-239.6,132.8l-1992.7-2.2H2953.8L2703.3-3844.8z"/></g></g>
</svg>