<?xml version="1.0" encoding="utf-8"?>
<!-- Svg Vector Icons : http://www.onlinewebfonts.com/icon -->
<!DOCTYPE svg PUBLIC "-//W3C//DTD SVG 1.1//EN" "http://www.w3.org/Graphics/SVG/1.1/DTD/svg11.dtd">
<svg version="1.1" xmlns="http://www.w3.org/2000/svg" xmlns:xlink="http://www.w3.org/1999/xlink" x="0px" y="0px" viewBox="0 0 1000 1000" enable-background="new 0 0 1000 1000" xml:space="preserve">
<metadata> Svg Vector Icons : http://www.onlinewebfonts.com/icon </metadata>
<g><g transform="translate(0.000000,511.000000) scale(0.100000,-0.100000)"><path d="M845.7,4981.4c-30.5-37,163.3-2260.2,198.1-2297.2c15.2-13.1,344-211.2,729.4-439.8l705.5-415.9h2521.4h2521.4l703.3,415.9c387.6,228.6,716.4,426.8,731.6,439.8c34.8,37,226.5,2258,198.1,2297.2c-32.7,37-1911.7,39.2-1950.9,0c-19.6-19.6-26.1-180.7-26.1-587.9v-561.8h-620.6h-620.6v574.8c0,503-4.4,577-34.9,587.9c-43.5,17.4-1846.4,17.4-1890,0c-30.5-10.9-34.8-84.9-34.8-587.9v-574.8h-631.4h-631.5v574.8c0,503-4.4,577-34.8,587.9c-19.6,6.5-433.3,13.1-923.2,13.1C1072.2,5007.5,863.1,5001,845.7,4981.4z"/><path d="M2461.3,1190.5c-4.4-15.2-6.5-233-4.4-483.4l6.5-457.3h2536.7h2536.7v479v479l-2532.3,6.5C2964.3,1218.8,2470,1214.5,2461.3,1190.5z"/><path d="M2868.5-379.4c-24-28.3-65.3-553-276.5-3525.2c-52.3-733.8-56.6-849.2-28.3-866.6c39.2-23.9,4831.7-26.1,4873.1,0c26.1,17.4,23.9,113.2-15.3,646.7c-26.1,346.2-98,1326.1-158.9,2175.2c-61,851.4-122,1559-132.9,1574.3C7094.9-333.6,2903.4-335.8,2868.5-379.4z"/></g></g>
</svg>