<?xml version="1.0" encoding="utf-8"?>
<!-- Svg Vector Icons : http://www.onlinewebfonts.com/icon -->
<!DOCTYPE svg PUBLIC "-//W3C//DTD SVG 1.1//EN" "http://www.w3.org/Graphics/SVG/1.1/DTD/svg11.dtd">
<svg version="1.1" xmlns="http://www.w3.org/2000/svg" xmlns:xlink="http://www.w3.org/1999/xlink" x="0px" y="0px" viewBox="0 0 1000 1000" enable-background="new 0 0 1000 1000" xml:space="preserve">
<metadata> Svg Vector Icons : http://www.onlinewebfonts.com/icon </metadata>
<g><g transform="translate(0.000000,511.000000) scale(0.100000,-0.100000)"><path d="M1498.6,4977.3c-470.9-102.5-815.4-529.8-815.4-1011.6c0-281.2,148.2-1918.6,187.5-2069c39.2-150.4,157-344.5,279.1-462.2c43.6-41.4,244.2-174.4,444.8-294.3l364.1-218l13.1-457.8c13.1-538.5,39.2-630.1,237.6-876.4l56.7-69.8l-119.9-1641.7c-126.5-1774.7-126.5-1792.1-24-2036.3c111.2-257.3,357.6-486.2,625.7-579.9l148.3-50.1H5000h2103.9l141.7,52.3c377.2,137.3,630.1,429.5,699.8,811c21.8,124.3,19.6,244.2-21.8,784.9c-26.2,353.2-80.7,1092.3-122.1,1643.9L7729.6-495l93.7,126.4c172.2,228.9,191.9,309.6,207.1,832.8l10.9,457.8l364.1,218c200.6,119.9,409.9,261.6,462.2,314c111.2,111.2,239.8,337.9,272.5,486.2c30.5,133,176.6,1816.1,176.6,2029.8c0,484-346.7,907-826.3,1009.4c-109,21.8-342.3,30.5-952.7,30.5c-850.3,0-978.9-10.9-1177.3-98.1l-117.7-52.3l-117.7,52.3c-198.4,87.2-327,98.1-1166.4,98.1c-850.3,0-994.2-13.1-1179.5-109l-91.6-48l-124.3,54.5c-67.6,30.5-181,65.4-250.7,78.5C3118.5,5020.9,1668.7,5014.4,1498.6,4977.3z M3262.4,4434.4c137.4-41.4,222.4-106.8,292.2-226.7c56.7-93.8,61-124.3,71.9-396.8c10.9-276.9,13.1-294.3,54.5-294.3s43.6,17.4,54.5,294.3c10.9,272.5,15.3,303,71.9,396.8c69.8,119.9,154.8,185.3,292.2,226.7c128.6,39.2,1582.8,43.6,1718,6.5c141.7-39.2,261.6-137.3,324.9-263.8c52.3-104.6,56.7-135.2,56.7-392.4c0-263.8,2.2-279.1,43.6-279.1s43.6,15.3,43.6,279.1c0,318.3,26.2,401.2,163.5,534.2C6591.5,4456.2,6650.4,4465,7529,4465c843.7,0,907-6.5,1053-119.9c102.5-76.3,189.7-252.9,189.7-381.5c0-54.5-34.9-501.5-76.3-992c-82.8-950.6-93.7-1005.1-215.8-1127.2c-32.7-32.7-263.8-178.8-510.1-324.8c-248.6-146.1-473.1-279.1-499.3-294.3c-45.8-28.3-45.8-34.9-17.4-106.8c41.4-95.9,45.8-887.3,6.5-1016c-30.5-106.8-146.1-244.2-235.5-281.3c-65.4-28.3-67.6-30.5-54.5-150.4c6.5-67.6,56.7-745.6,109-1506.5c54.5-760.9,109-1510.9,122.1-1665.7c17.5-215.8,17.5-303-2.2-375c-32.7-117.7-150.4-257.3-270.4-320.5l-89.4-48H5000H2961.5l-89.4,48c-119.9,63.2-237.6,202.8-268.2,318.3c-21.8,76.3-6.5,372.8,93.7,1781.2C2763.1-1168.7,2822-362,2828.5-305.3c10.9,95.9,6.5,102.5-54.5,126.4c-87.2,37.1-202.8,176.6-233.3,281.3c-39.3,128.6-34.9,920,6.5,1016c28.3,71.9,28.3,78.5-17.4,106.8c-26.2,15.3-244.2,143.9-484,285.6c-239.8,141.7-468.7,287.8-510.2,324.8c-139.5,128.6-146.1,165.7-231.1,1135.9c-41.4,490.5-76.3,937.5-76.3,992c0,128.6,87.2,309.6,187.5,383.7c139.5,106.8,202.8,115.5,1002.9,115.5C2992,4465,3183.9,4458.4,3262.4,4434.4z"/><path d="M1701.4,3991.8c-26.2-24-15.3-207.1,56.7-1024.7c39.2-433.9,80.7-800.1,91.6-811c13.1-10.9,272.5-167.9,579.9-348.8l560.3-329.2H5000h2010.1l560.3,329.2c307.4,181,569,340.1,582.1,353.2c26.2,28.3,170.1,1659.1,157,1770.3l-6.5,65.4h-774h-774l-6.5-462.2l-4.3-464.4h-501.5h-501.4l-4.4,464.4l-6.5,462.2l-750,6.5c-534.2,4.4-758.7-2.2-778.3-19.6c-24-19.6-30.5-119.9-30.5-468.7v-444.8H3681h-490.5v442.6c0,316.1-6.5,449.1-26.2,468.8c-19.6,19.6-213.7,26.2-736.9,26.2C2034.9,4007.1,1707.9,4000.6,1701.4,3991.8z"/><path d="M2994.2,981c-13.1-4.4-21.8-154.8-21.8-388.1V213.6H5000h2027.6v381.5c0,290-6.5,381.5-26.2,383.7C6905.5,983.2,3011.7,985.3,2994.2,981z"/><path d="M3288.5-292.3c-17.4-52.3-255.1-3442.5-242-3475.2c10.9-26.2,283.4-30.5,1951.3-30.5c1181.7,0,1944.7,8.7,1953.5,19.6c10.9,21.8-220.2,3370.6-239.8,3464.3l-10.9,48H4997.8C3657-266.1,3295.1-272.6,3288.5-292.3z"/></g></g>
</svg>