<?xml version="1.0" encoding="utf-8"?>
<!-- Svg Vector Icons : http://www.onlinewebfonts.com/icon -->
<!DOCTYPE svg PUBLIC "-//W3C//DTD SVG 1.1//EN" "http://www.w3.org/Graphics/SVG/1.1/DTD/svg11.dtd">
<svg version="1.1" xmlns="http://www.w3.org/2000/svg" xmlns:xlink="http://www.w3.org/1999/xlink" x="0px" y="0px" viewBox="0 0 1000 1000" enable-background="new 0 0 1000 1000" xml:space="preserve">
<metadata> Svg Vector Icons : http://www.onlinewebfonts.com/icon </metadata>
<g><g transform="translate(0.000000,511.000000) scale(0.100000,-0.100000)"><path d="M2447.7,4981.7c-200.6-74.1-320.5-200.6-370.6-388.1c-41.4-154.8,74.1-1752.9,137.4-1898.9c56.7-133,137.3-204.9,486.2-427.3l283.4-183.1l-6.5-525.4c-4.4-290-2.2-558.1,6.5-595.2c17.4-102.5,137.3-266,231.1-320.5c45.8-26.2,85-52.3,85-58.9S3221.6-11,3125.7-723.9c-95.9-712.9-196.2-1469.5-224.6-1680.9l-48-385.9l-248.5-137.4c-154.8-87.2-276.9-172.2-327-228.9c-102.5-117.7-420.8-883-433.9-1048.7c-17.5-215.8,87.2-412.1,283.4-521.1l115.5-63.2h2758h2757.9l91.6,48c215.8,115.5,327,316.1,305.2,553.8c-8.7,111.2-41.4,181-255.1,562.5c-133,239.8-274.7,466.6-311.8,503.6c-37.1,37.1-185.3,130.8-331.4,211.5l-261.6,143.9l-215.9,1615.5c-117.7,887.3-218,1646-224.6,1680.9c-8.7,56.7,0,71.9,76.3,113.4c95.9,54.5,215.8,215.8,233.3,320.5c8.7,37.1,10.9,305.2,6.5,595.2l-6.5,525.4l283.4,183.1c154.8,98.1,318.3,213.7,361.9,252.9c152.6,135.2,163.5,187.5,228.9,1109.7c32.7,462.2,50.2,876.4,43.6,930.9c-21.8,141.7-130.8,287.8-274.7,370.6l-119.9,67.6h-719.5h-719.5l-122.1-67.6c-119.9-69.8-119.9-69.8-174.4-28.3c-115.5,91.6-237.7,106.8-804.5,106.8c-573.4,0-671.5-13.1-806.7-109c-61-43.6-71.9-45.8-104.6-15.3c-124.3,109-154.8,113.4-800.1,117.7C2672.2,5007.8,2506.5,5003.5,2447.7,4981.7z M3601,4046.3l4.4-409.9h381.5h381.5v414.2V4465h479.6h479.6v-414.2v-414.2h381.5h381.5v414.2V4465h579.9h580l-13.1-146.1c-6.5-82.8-28.3-368.5-45.8-638.8c-17.4-270.3-39.2-551.6-45.8-627.9l-13.1-137.4l-346.7-228.9l-348.8-226.7H4924.4H3411.3l-348.8,228.9c-194,126.4-351,237.6-351,246.4c0,8.7-24,348.8-54.5,756.5c-30.5,407.7-54.5,747.8-54.5,758.7c0,8.7,222.4,13.1,497.1,10.9l494.9-6.5L3601,4046.3z M6330.6,1467.2v-381.5H4924.4H3518.1v381.5v381.5h1406.2h1406.2V1467.2z M6003.6,527.5c0-30.5,416.4-3119.9,427.3-3174.4l13.1-61H4926.6H3411.3l8.7,61c13.1,74.1,425.1,3146,425.1,3170c0,8.7,486.2,17.4,1079.2,17.4C5517.4,540.6,6003.6,534.1,6003.6,527.5z M6980.3-3385.9l233.3-130.8l191.9-344.5c104.6-189.7,189.7-355.4,189.7-368.4c0-30.5-5180.1-39.2-5195.4-8.7c-10.9,19.6,270.3,691.1,305.2,726c13.1,13.1,117.7,76.3,228.9,139.6l202.8,115.5l1805.2,2.2l1803,2.2L6980.3-3385.9z"/></g></g>
</svg>