<?xml version="1.0" encoding="utf-8"?>
<!-- Svg Vector Icons : http://www.onlinewebfonts.com/icon -->
<!DOCTYPE svg PUBLIC "-//W3C//DTD SVG 1.1//EN" "http://www.w3.org/Graphics/SVG/1.1/DTD/svg11.dtd">
<svg version="1.1" xmlns="http://www.w3.org/2000/svg" xmlns:xlink="http://www.w3.org/1999/xlink" x="0px" y="0px" viewBox="0 0 1000 1000" enable-background="new 0 0 1000 1000" xml:space="preserve">
<metadata> Svg Vector Icons : http://www.onlinewebfonts.com/icon </metadata>
<g><g transform="translate(0.000000,511.000000) scale(0.100000,-0.100000)"><path d="M933.8,4968.6c-47.9-21.8-108.9-67.5-135-100.2c-102.3-130.6-102.3-141.5,2.2-1345.7c84.9-997.3,102.3-1130.1,141.5-1195.4c32.7-50.1,226.5-191.6,677.2-485.6l631.5-413.7l6.5-635.8c6.5-605.3,8.7-638,52.3-696.8c61-82.7,178.5-159,243.9-159h54.4L2593-274.7c-67.5-1027.8-252.6-4026.1-252.6-4117.6c0-63.2,15.2-143.7,32.7-176.4c43.5-84.9,150.2-169.8,246-198.1c119.8-32.7,4664.1-30.5,4777.4,4.4c95.8,28.3,226.4,158.9,250.4,250.4c8.7,34.8-45.7,1040.8-122,2238.4C7451-1076,7390-89.6,7392.2-78.7c0,8.7,23.9,15.3,52.3,15.3c63.1,0,178.5,76.2,239.5,159c43.5,58.8,45.7,91.5,52.2,696.8l6.5,635.8l609.7,400.7c333.2,219.9,631.5,429,662,463.8c28.3,34.8,63.2,100.2,74,143.7c10.9,43.5,61,568.3,113.2,1164.9c89.3,1071.3,91.5,1084.4,50.1,1171.5c-43.6,98-132.9,174.2-246.1,213.4c-50.1,15.2-365.8,24-1001.6,24c-855.7,0-934.1-4.4-1014.7-41.4c-100.2-45.7-172-117.6-204.7-204.7c-15.2-34.8-23.9-235.2-23.9-474.7v-411.5h-196h-196v424.6c0,455.1-8.7,494.3-113.2,592.3C6133.6,5010,6127.1,5010,4949,5010c-1232.4,0-1210.7,2.2-1337-165.5l-63.1-80.6l-6.5-444.2l-6.5-442h-193.8h-191.6l-8.7,420.3c-6.5,479-26.1,542.2-176.4,642.3l-89.3,58.8l-925.4,4.4C1084.1,5010,1016.6,5007.8,933.8,4968.6z M2514.7,3953.9c0-461.6,10.9-522.6,119.8-620.6l58.8-54.4l616.2-6.5c688.1-6.5,712-2.2,794.8,132.8c39.2,63.2,43.5,111.1,43.5,522.6v450.8h805.7h805.7v-437.7c0-489.9,13.1-550.9,141.5-629.3c65.3-41.4,106.7-43.6,666.3-43.6c836.2,0,803.5-26.1,803.5,664.1v446.4h638h638l-71.8-810c-39.2-446.4-71.9-834-76.2-860.1c-4.4-34.8-150.2-141.5-572.7-418.1L7359.5,1918H4997H2634.4l-566.1,370.2c-354.9,233-568.3,385.4-572.7,409.4c-4.4,21.8-37,409.4-76.2,860.1l-69.7,820.9h581.4h583.6V3953.9z M7130.9,916.4V546.2H4997H2863v370.2v370.2H4997h2133.9V916.4z M6769.4-176.7c6.5-52.3,21.8-265.7,34.8-474.7c10.9-209.1,65.3-1075.7,119.8-1927.1c54.4-849.2,98-1552.5,98-1561.2c0-10.9-910.2-17.4-2025-17.4c-1707.1,0-2025,4.4-2025,30.5c0,15.2,39.2,644.5,87.1,1397.9c47.9,753.4,102.3,1624.4,119.8,1935.8c19.6,311.4,39.2,598.8,45.7,638l10.9,69.7H4997h1761.6L6769.4-176.7z"/></g></g>
</svg>