<?xml version="1.0" encoding="utf-8"?>
<!-- Svg Vector Icons : http://www.onlinewebfonts.com/icon -->
<!DOCTYPE svg PUBLIC "-//W3C//DTD SVG 1.1//EN" "http://www.w3.org/Graphics/SVG/1.1/DTD/svg11.dtd">
<svg version="1.1" xmlns="http://www.w3.org/2000/svg" xmlns:xlink="http://www.w3.org/1999/xlink" x="0px" y="0px" viewBox="0 0 1000 1000" enable-background="new 0 0 1000 1000" xml:space="preserve">
<metadata> Svg Vector Icons : http://www.onlinewebfonts.com/icon </metadata>
<g><g transform="translate(0.000000,511.000000) scale(0.100000,-0.100000)"><path d="M2809.3,3388.8c-89.3-41.4-180.7-143.7-206.9-233c-13.1-39.2-21.8-178.5-21.8-307v-235.2h-712c-796.9,0-921-15.2-1158.4-135c-167.7-84.9-361.5-270-457.3-435.5c-37-67.5-89.3-200.3-113.2-296.1c-41.4-167.7-43.5-230.8-37-2107.7l6.5-1935.7l50.1-128.5c69.7-187.2,143.7-304.8,276.5-437.6c132.8-130.6,250.4-206.9,437.7-276.5l128.5-50.1l3930.2-6.5c3860.5-4.4,3932.4-4.4,4100,39.2c426.8,106.7,742.5,433.3,831.8,860.1c47.9,226.4,47.9,3780,0,4006.4c-91.5,437.7-433.3,779.5-871,871c-115.4,23.9-324.4,32.7-875.3,32.7h-725.1V2729c0,135-52.3,235.2-156.8,298.3c-58.8,34.8-111,43.6-270,43.6c-169.9,0-209-6.5-270-47.9c-111-76.2-152.4-148.1-167.7-285.2l-13-124.1H4995.4h-1522v235.2c0,128.5-10.9,267.8-21.8,309.2c-24,89.3-132.8,204.7-224.3,237.3C3142.4,3428,2887.7,3423.6,2809.3,3388.8z M8919.1,2004c117.6-32.7,248.2-137.2,317.9-254.8l61-104.5V-293.2v-1937.9l-61-102.3c-67.5-115.4-172-204.7-291.8-248.2c-121.9-43.5-7773.3-43.5-7895.2,0c-119.8,43.6-224.3,132.8-291.8,248.2l-61,102.3v1937.9v1937.9l61,102.3c67.5,115.4,172,204.7,291.8,248.2c67.5,24,762.1,28.3,3936.7,28.3C7362.2,2023.5,8871.2,2014.8,8919.1,2004z"/><path d="M2652.5,1405.2C1859.9,1224.4,1296,519,1296-293.2c0-455.1,158.9-857.9,474.7-1191c681.5-722.9,1831.2-722.9,2512.7,0c474.7,505.2,607.5,1228.1,341.8,1870.4c-148.1,352.7-472.5,701.1-818.7,875.3c-233,115.4-418.1,159-725.1,167.7C2879,1433.5,2744,1426.9,2652.5,1405.2z M3303.6,978.4c363.6-74,722.9-357.1,884-696.8c102.3-213.4,135-352.7,135-574.8s-32.7-361.5-135-574.8c-209-437.6-664.1-720.7-1160.5-720.7c-714.2,0-1295.6,577-1295.6,1289c0,228.6,32.7,365.8,135,581.4c156.8,331,494.3,603.1,849.2,690.2C2861.5,1006.7,3153.3,1008.9,3303.6,978.4z"/><path d="M2304.1,575.6c-13.1-37,47.9-200.3,278.7-722.9c169.8-387.6,193.8-426.8,287.4-483.4c126.3-78.4,287.4-43.6,383.2,78.4c58.8,74,61,233,4.4,324.4c-34.8,58.8-518.2,529.1-777.3,759.9C2382.5,616.9,2325.9,630,2304.1,575.6z"/><path d="M6561,1394.3c-816.5-202.5-1356.5-927.6-1319.5-1772.4c21.8-442,187.2-818.7,505.1-1136.6c317.9-317.9,694.6-483.4,1136.6-505.1c627.1-28.3,1184.5,252.6,1530.7,770.8c211.2,315.7,298.3,646.7,278.7,1058.2C8673,231.5,8525,579.9,8235.4,886.9c-256.9,272.2-603.2,466-938.5,526.9C7098.8,1450.9,6752.6,1440,6561,1394.3z M7292.6,967.5c439.8-113.2,823-496.4,938.4-936.3c43.5-165.5,41.4-479-2.2-648.9c-91.5-352.7-359.3-679.3-685.9-836.1c-215.6-102.3-352.7-135-581.4-135c-585.7,0-1110.5,413.7-1256.4,990.7c-41.4,165.5-41.4,444.2,0,609.7c115.4,452.9,470.3,823.1,914.5,949.4C6789.6,1011,7114,1013.2,7292.6,967.5z"/><path d="M7207.6,183.6c-483.4-328.8-568.3-398.5-596.6-503c-63.1-230.8,161.1-435.5,385.4-350.5c100.2,37,163.3,121.9,483.4,631.4c250.4,400.6,291.8,503,206.8,511.7C7660.5,477.6,7462.4,355.6,7207.6,183.6z"/></g></g>
</svg>