<?xml version="1.0" encoding="utf-8"?>
<!-- Svg Vector Icons : http://www.onlinewebfonts.com/icon -->
<!DOCTYPE svg PUBLIC "-//W3C//DTD SVG 1.1//EN" "http://www.w3.org/Graphics/SVG/1.1/DTD/svg11.dtd">
<svg version="1.1" xmlns="http://www.w3.org/2000/svg" xmlns:xlink="http://www.w3.org/1999/xlink" x="0px" y="0px" viewBox="0 0 1000 1000" enable-background="new 0 0 1000 1000" xml:space="preserve">
<metadata> Svg Vector Icons : http://www.onlinewebfonts.com/icon </metadata>
<g><g transform="translate(0.000000,511.000000) scale(0.100000,-0.100000)"><path d="M2549.8,3391.7c-106.7-41.4-196-137.2-226.5-246.1c-13.1-45.7-24-226.5-24-402.9v-322.3h-694.6c-629.3,0-707.7-4.4-831.8-43.6c-322.3-100.2-550.9-346.2-640.2-690.3C104.4,1579.9,100,1275.1,100-369c0-1204.2,8.7-1972.9,21.8-2044.7c71.9-381.1,385.4-690.3,770.9-760c182.9-32.7,8031-32.7,8213.9,0c385.4,69.7,699,378.9,770.9,760c30.5,163.3,30.5,3891.4-2.2,4061.2c-63.1,346.2-313.6,625-653.3,731.7c-117.6,37-206.9,41.4-825.3,41.4h-690.3l-10.9,150.3c-13.1,172-61,272.2-167.7,344.1c-89.3,61-285.3,84.9-431.2,54.4c-211.2-43.5-294-148.1-311.4-385.4l-10.9-152.4H4999.6H3224.8l-10.9,381.1c-13.1,424.6-21.8,457.3-169.8,548.8C2946.1,3422.2,2678.3,3437.4,2549.8,3391.7z M3192.2,1286c611.9-156.8,1077.9-622.8,1243.4-1250c63.1-239.5,63.1-607.5,0-844.9c-139.4-529.2-557.5-993-1069.2-1182.5c-446.4-167.7-919-148-1343.6,56.6C1214.9-1542.7,840.4-615.1,1154,221.1c219.9,592.3,781.8,1034.4,1402.4,1110.6C2745.8,1353.5,2987.5,1336,3192.2,1286z M7667.1,1286c509.6-128.5,977.8-542.2,1171.5-1040.9c126.3-322.3,152.4-635.9,82.8-973.4c-187.3-905.9-1075.7-1511.2-1983.8-1350.1c-655.4,117.6-1204.2,627.2-1374,1276.1c-63.2,248.2-63.2,594.5,0,838.4C5811.8,976.7,6726.4,1519,7667.1,1286z"/><path d="M2702.2,891.8C2652.1,750.3,2430-371.2,2430-482.3c0-243.9,241.7-405,463.8-311.4c93.6,37,185.1,148.1,202.5,241.7c6.5,41.4,2.2,141.5-13.1,222.1C3028.9-5.4,2837.2,865.7,2817.6,891.8c-13.1,13.1-41.4,26.1-65.3,26.1C2730.5,917.9,2706.6,904.9,2702.2,891.8z"/><path d="M7558.3,190.6c-570.5-383.3-694.7-483.5-729.5-590.1c-98-298.3,248.2-561.8,511.7-389.8c65.3,41.4,276.6,350.6,609.7,888.5c167.7,272.2,209,352.8,191.6,381.1c-13.1,19.6-34.8,37-52.3,41.4C8072.2,523.8,7832.6,375.7,7558.3,190.6z"/></g></g>
</svg>