<?xml version="1.0" encoding="utf-8"?>
<!-- Generator: Adobe Illustrator 27.3.1, SVG Export Plug-In . SVG Version: 6.00 Build 0)  -->
<svg version="1.1" id="Layer_1" xmlns="http://www.w3.org/2000/svg" xmlns:xlink="http://www.w3.org/1999/xlink" x="0px" y="0px"
	 viewBox="0 0 2997.2 1024" style="enable-background:new 0 0 2997.2 1024;" xml:space="preserve">
<style type="text/css">
	.st0{fill:#13110C;}
	.st1{fill:none;stroke:#000000;stroke-width:50;stroke-miterlimit:10;}
</style>
<g>
	<g transform="translate(0.000000,511.000000) scale(0.100000,-0.100000)">
		<path class="st0" d="M4746.9,4876.7c-290.4-63.3-521.9-185.6-718.4-386.5c-120.1-122.3-272.9-358.1-297-460.7
			c-8.7-34.9-24-61.1-32.8-61.1c-8.7,0-72.1,24-137.6,54.6c-386.5,176.9-877.8,146.3-1253.4-80.8
			c-157.2-93.9-371.2-323.2-460.7-491.3c-72.1-135.4-157.2-423.6-157.2-530.6v-56.8h-222.7c-395.2-2.2-700.9-122.3-956.4-379.9
			c-257.6-255.7-379.9-561.4-379.9-939.1c0-342.8,89.5-598.3,303.5-858.2c109.2-131,369-321,500-364.7l74.2-24l545.9-1360.4
			l543.7-1360.4l-85.2-139.7c-172.5-286.1-255.5-694.4-211.8-1050.3c78.6-657.2,491.3-1155.1,1056.9-1273
			c128.8-26.2,480.4-32.8,2172.7-32.8c1273,0,2072.3,8.7,2161.8,21.8c375.6,59,751.2,349.4,932.4,720.6
			c120.1,242.4,159.4,397.4,174.7,676.9c19.7,360.3-56.8,672.5-233.6,967.3l-87.3,144.1l537.1,1343.1
			C9050.8,291.2,9053,297.7,9125,321.7c222.7,74.2,526.2,347.2,652.9,587.4c117.9,224.9,152.9,373.4,152.9,635.4
			c0,377.8-122.3,683.5-380,938.9c-255.5,257.7-559,377.8-941.1,379.9h-231.5l-24,157.2c-85.2,550.3-491.3,978.2-1035,1087.4
			c-299.1,61.1-572.1,30.6-838.5-93.9l-135.4-63.3l-89.5,185.6c-72.1,148.5-124.5,222.7-259.9,355.9
			c-185.6,183.4-307.9,262-545.9,340.6C5251.3,4900.7,4947.8,4918.1,4746.9,4876.7z M5364.9,4256.5
			c353.8-166,545.9-572.1,443.3-934.6c-37.1-131-161.6-338.5-233.7-388.7c-37.1-26.2-28.4-74.2,179.1-875.6
			c120.1-467.3,220.5-851.6,222.7-856c8.8-6.5,452,1137.7,452,1161.7c0,8.7-30.6,78.6-67.7,155
			c-200.9,406.1,28.4,895.3,480.4,1028.5c347.1,100.4,738-78.6,895.3-408.3c48-102.6,56.8-150.7,56.8-318.8
			c0-183.4-6.6-209.6-76.4-347.2c-69.9-139.7-190-264.2-336.3-349.4c-32.8-19.6-34.9-85.2-30.6-727.1l6.6-703.1l268.6,316.6
			l266.4,314.4l-24,104.8c-50.2,220.5,48,513.1,224.9,672.5c152.9,137.6,303.5,196.5,519.7,196.5c155,0,205.3-10.9,307.9-59
			c172.5-78.6,290.4-194.3,373.4-362.5c65.5-131,72.1-166,72.1-331.9c0-152.9-10.9-207.4-59-307.9
			C9206,1018,8976.7,839,8758.3,810.6l-96.1-13.1L7987.4-877.1l-676.9-1672.6l89.5-67.7c104.8-80.8,183.4-190,264.2-366.9
			c72.1-159.4,98.3-486.9,52.4-685.6c-59-266.4-216.2-493.5-419.3-607l-115.7-63.3l-2094.1-6.5c-1867-4.4-2107.2-2.2-2201.1,30.6
			c-117.9,39.3-301.3,192.2-382.1,321c-128.8,203.1-187.8,535-139.8,790.5c34.9,190,155,421.4,281.7,541.5l107,98.3L2076.4-883.7
			L1399.5,797.7l-83,10.9c-224.9,30.6-460.7,207.4-561.2,428c-48,100.4-59,155-59,307.9c0,166,6.5,200.9,72.1,331.9
			c83,168.1,200.9,283.9,373.4,362.5c102.6,48,152.9,59,307.9,59s205.3-10.9,312.3-59c307.9-144.1,502.2-506.6,430.2-803.6
			l-26.2-109.2l235.8-277.3c128.8-155,251.1-299.1,275.1-323.2c37.1-41.5,39.3-21.8,39.3,676.9v720.6l-100.4,52.4
			c-115.7,63.3-227.1,190-297,342.8c-69.9,150.7-72.1,454.2-2.2,602.7c65.5,144.1,229.3,312.3,375.6,382.1
			c107,52.4,148.5,61.1,318.8,61.1c166,0,216.2-10.9,321-59c390.9-181.2,556.8-657.3,355.9-1017.5c-30.6-52.4-54.6-107-54.6-120.1
			s100.4-283.9,222.7-600.5c163.8-425.8,227.1-565.6,240.2-537.2c8.7,24,115.7,397.4,235.8,834.1l218.4,792.7l-107,107
			c-59,59-135.4,163.8-170.3,233.6c-52.4,111.4-61.1,150.7-61.1,323.2c0,174.7,6.5,211.8,69.9,342.8
			c107,229.3,305.7,393,545.9,454.2C4976.2,4354.8,5214.2,4328.6,5364.9,4256.5z"/>
		<path class="st0" d="M4843,3837.3c-115.7-59-183.4-176.9-183.4-321c0-120.1,52.4-220.5,159.4-299.1c87.3-65.5,314.4-65.5,399.6,0
			c117.9,87.3,150.7,152.9,150.7,303.5c0,148.5-32.8,216.2-148.5,303.5C5135.6,3887.5,4954.4,3894,4843,3837.3z"/>
		<path class="st0" d="M2855.9,3075.2c-102.6-63.3-139.8-128.8-139.8-248.9c0-146.3,48-229.3,166-281.7
			c266.4-117.9,517.5,115.7,414.9,386.5C3229.3,3103.6,3015.3,3173.5,2855.9,3075.2z"/>
		<path class="st0" d="M6875.9,3073c-312.3-205.3-56.8-672.5,290.4-535c231.5,93.9,246.8,432.3,26.2,545.9
			C7103,3129.8,6954.5,3125.4,6875.9,3073z"/>
		<path class="st0" d="M4980.6,2708.3c-4.4-10.9-190-672.5-410.5-1473.9c-220.5-803.6-408.3-1458.6-414.9-1458.6
			c-6.5,0-214,517.5-458.6,1148.6c-390.9,1013.2-473.8,1198.8-511,1161.7c-4.4-4.4-10.9-395.2-13.1-869.1
			c-2.2-473.8-10.9-1061.2-17.5-1305.8l-13.1-441.1l-611.4,729.3c-554.6,663.8-692.2,805.7-670.4,687.8
			c2.2-17.5,307.9-779.5,674.7-1694.5l670.4-1666.1h1825.6h1825.5l668.2,1666.1c369,914.9,674.7,1677,676.9,1694.5
			c24,120.1-115.7-21.8-670.4-685.6c-526.2-628.9-613.6-725-626.7-681.3c-6.5,26.2-13.1,615.8-15.3,1310.2
			c-2.2,1244.6-2.2,1259.9-45.8,1259.9c-24,0-43.7-8.7-43.7-19.6c0-21.8-866.9-2264.4-895.3-2314.6c-13.1-24-24-10.9-37.1,43.7
			c-10.9,39.3-185.6,716.2-388.7,1500.1l-366.9,1423.7h-61.1C5017.7,2723.6,4984.9,2717.1,4980.6,2708.3z"/>
		<path class="st0" d="M1303.4,1817.4c-207.4-89.5-209.6-428-4.4-539.4c207.4-111.4,456.4,34.9,456.4,270.8
			C1755.4,1771.6,1519.6,1911.3,1303.4,1817.4z"/>
		<path class="st0" d="M8461.2,1810.9c-268.6-144.1-157.2-572.1,146.3-572.1c179.1,0,310.1,128.8,310.1,305.7
			C8917.6,1784.7,8675.2,1924.4,8461.2,1810.9z"/>
		<path class="st0" d="M3052.5-3100c-128.8-131-128.8-493.5,0-624.5c34.9-35,176.9-37.1,1984.9-37.1
			c2185.8,0,2015.5-13.1,2076.6,168.1c58.9,172.5,30.5,382.1-65.5,489.1c-37.1,41.5-87.3,41.5-1998,41.5
			C3229.3-3062.9,3087.4-3065.1,3052.5-3100z"/>
	</g>
</g>
<g>
	<path class="st1" d="M1399.5,231.8c0.1,67.1-52.5,123.8-117.1,130.6c-75,8-145.7-53.3-145.8-130.6
		c-0.1-70.3,58.2-131.4,131.4-131.4C1341,100.4,1399.4,161.1,1399.5,231.8z"/>
	<path class="st1" d="M1194.8,369.2c-17.8,3.6-119.9,25-119.6,52.7c0.2,24,64.3,54.9,121.7,50.7c29-2.1,34.9-11.7,69.2-12.2
		c42-0.6,51.7,13.5,85.8,14.8c53.3,2,108.6-29.5,108.7-51.3c0.2-28.9-95.6-50.1-107.5-52.7C1288.9,357.1,1233,362.2,1194.8,369.2z"
		/>
	<path class="st1" d="M994,953.3c2.8-45.7,14.3-98.3,52.7-123.7c60.5-40.1,166.3,1.2,167-2.1c0.5-2.5-62.4-5.9-84.6-45.1
		c-4.4-7.8-6.1-19.9-9.3-44.1c-3.6-26.3-6.8-50-5-80.7c1.5-25.8,3.1-54.8,17.9-88.1c7.6-17.1,21.9-49.2,56.1-72.5
		c12.5-8.6,62.1-42.4,111.5-20.3c39,17.5,52.1,58.2,54.8,66.9"/>
	<path class="st1" d="M1543.6,957.3c-7.1-47.7-24.1-102.7-67.9-127.8c-65.8-37.5-167.7,6.4-170.3-3.1c-1.7-6.3,43.6-15.9,70.9-57.8
		c9.7-14.9,15-30.6,14.3-31c-1.1-0.5-16.7,38.8-34,58.9c-25.9,30.2-85.6,52.2-234.8,14.8"/>
	<path class="st1" d="M1531.3,904c15.5,24.3,17.9,41.4,12.3,53.3c-19,40.3-122.6,3.4-300.1,6.1c-140.7,2.1-230.9,27.6-249.4-10.1
		c-7.3-14.8-0.6-33.2,6.6-47"/>
</g>
<g>
	<path class="st1" d="M2077.7,231.8c0.1,67.1-52.5,123.8-117.1,130.6c-75,8-145.7-53.3-145.8-130.6
		c-0.1-70.3,58.2-131.4,131.4-131.4C2019.2,100.4,2077.6,161.1,2077.7,231.8z"/>
	<path class="st1" d="M1873,369.2c-17.8,3.6-119.9,25-119.6,52.7c0.2,24,64.3,54.9,121.7,50.7c29-2.1,34.9-11.7,69.2-12.2
		c42-0.6,51.7,13.5,85.8,14.8c53.3,2,108.6-29.5,108.7-51.3c0.2-28.9-95.6-50.1-107.5-52.7C1967,357.1,1911.1,362.2,1873,369.2z"/>
	<path class="st1" d="M1672.2,953.3c2.8-45.7,14.3-98.3,52.7-123.7c60.5-40.1,166.3,1.2,167-2.1c0.5-2.5-62.4-5.9-84.6-45.1
		c-4.4-7.8-6.1-19.9-9.3-44.1c-3.6-26.3-6.8-50-5-80.7c1.5-25.8,3.1-54.8,17.9-88.1c7.6-17.1,21.9-49.2,56.1-72.5
		c12.5-8.6,62.1-42.4,111.5-20.3c39,17.5,52.1,58.2,54.8,66.9"/>
	<path class="st1" d="M2221.8,957.3c-7.1-47.7-24.1-102.7-67.9-127.8c-65.8-37.5-167.7,6.4-170.3-3.1c-1.7-6.3,43.6-15.9,70.9-57.8
		c9.7-14.9,15-30.6,14.3-31c-1.1-0.5-16.7,38.8-34,58.9c-25.9,30.2-85.6,52.2-234.8,14.8"/>
	<path class="st1" d="M2209.4,904c15.5,24.3,17.9,41.4,12.3,53.3c-19,40.3-122.6,3.4-300.1,6.1c-140.7,2.1-230.9,27.6-249.4-10.1
		c-7.3-14.8-0.6-33.2,6.6-47"/>
</g>
<g>
	<path class="st1" d="M2755.8,231.8c0.1,67.1-52.5,123.8-117.1,130.6c-75,8-145.7-53.3-145.8-130.6
		c-0.1-70.3,58.2-131.4,131.4-131.4C2697.4,100.4,2755.8,161.1,2755.8,231.8z"/>
	<path class="st1" d="M2551.1,369.2c-17.8,3.6-119.9,25-119.6,52.7c0.2,24,64.3,54.9,121.7,50.7c29-2.1,34.9-11.7,69.2-12.2
		c42-0.6,51.7,13.5,85.8,14.8c53.3,2,108.6-29.5,108.7-51.3c0.2-28.9-95.6-50.1-107.5-52.7C2645.2,357.1,2589.3,362.2,2551.1,369.2z
		"/>
	<path class="st1" d="M2350.4,953.3c2.8-45.7,14.3-98.3,52.7-123.7c60.5-40.1,166.3,1.2,167-2.1c0.5-2.5-62.4-5.9-84.6-45.1
		c-4.4-7.8-6.1-19.9-9.3-44.1c-3.6-26.3-6.8-50-5-80.7c1.5-25.8,3.1-54.8,17.9-88.1c7.6-17.1,21.9-49.2,56.1-72.5
		c12.5-8.6,62.1-42.4,111.5-20.3c39,17.5,52.1,58.2,54.8,66.9"/>
	<path class="st1" d="M2899.9,957.3c-7.1-47.7-24.1-102.7-67.9-127.8c-65.8-37.5-167.7,6.4-170.3-3.1c-1.7-6.3,43.6-15.9,70.9-57.8
		c9.7-14.9,15-30.6,14.3-31c-1.1-0.5-16.7,38.8-34,58.9c-25.9,30.2-85.6,52.2-234.8,14.8"/>
	<path class="st1" d="M2887.6,904c15.5,24.3,17.9,41.4,12.3,53.3c-19,40.3-122.6,3.4-300.1,6.1c-140.7,2.1-230.9,27.6-249.4-10.1
		c-7.3-14.8-0.6-33.2,6.6-47"/>
</g>
</svg>
