<?xml version="1.0" encoding="UTF-8"?><svg id="Layer_1" xmlns="http://www.w3.org/2000/svg" viewBox="0 0 980 981.79"><defs><style>.cls-1{stroke-width:39px;}.cls-1,.cls-2{fill:none;stroke:#000;stroke-miterlimit:10;}.cls-2{stroke-width:33px;}</style></defs><path d="m461.61,2.22c-29.04,6.33-52.19,18.56-71.84,38.65-12.01,12.23-27.29,35.81-29.7,46.07-.87,3.49-2.4,6.11-3.28,6.11s-7.21-2.4-13.76-5.46c-38.65-17.69-87.78-14.63-125.34,8.08-15.72,9.39-37.12,32.32-46.07,49.13-7.21,13.54-15.72,42.36-15.72,53.06v5.68h-22.27c-39.52.22-70.09,12.23-95.64,37.99C12.23,267.1,0,297.67,0,335.44c0,34.28,8.95,59.83,30.35,85.82,10.92,13.1,36.9,32.1,50,36.47l7.42,2.4,54.59,136.04,54.37,136.04-8.52,13.97c-17.25,28.61-25.55,69.44-21.18,105.03,7.86,65.72,49.13,115.51,105.69,127.3,12.88,2.62,48.04,3.28,217.27,3.28,127.3,0,207.23-.87,216.18-2.18,37.56-5.9,75.12-34.94,93.24-72.06,12.01-24.24,15.94-39.74,17.47-67.69,1.97-36.03-5.68-67.25-23.36-96.73l-8.73-14.41,53.71-134.31c53.5-133.64,53.72-134.29,60.92-136.69,22.27-7.42,52.62-34.72,65.29-58.74,11.79-22.49,15.29-37.34,15.29-63.54,0-37.78-12.23-68.35-38-93.89-25.55-25.77-55.9-37.78-94.11-37.99h-23.15l-2.4-15.72c-8.52-55.03-49.13-97.82-103.5-108.74-29.91-6.11-57.21-3.06-83.85,9.39l-13.54,6.33-8.95-18.56c-7.21-14.85-12.45-22.27-25.99-35.59-18.56-18.34-30.79-26.2-54.59-34.06-19.87-6.79-50.22-8.53-70.31-4.39Zm61.8,62.02c35.38,16.6,54.59,57.21,44.33,93.46-3.71,13.1-16.16,33.85-23.37,38.87-3.71,2.62-2.84,7.42,17.91,87.56,12.01,46.73,22.05,85.16,22.27,85.6.88.65,45.2-113.77,45.2-116.17,0-.87-3.06-7.86-6.77-15.5-20.09-40.61,2.84-89.53,48.04-102.85,34.71-10.04,73.8,7.86,89.53,40.83,4.8,10.26,5.68,15.07,5.68,31.88,0,18.34-.66,20.96-7.64,34.72-6.99,13.97-19,26.42-33.63,34.94-3.28,1.96-3.49,8.52-3.06,72.71l.66,70.31,26.86-31.66,26.64-31.44-2.4-10.48c-5.02-22.05,4.8-51.31,22.49-67.25,15.29-13.76,30.35-19.65,51.97-19.65,15.5,0,20.53,1.09,30.79,5.9,17.25,7.86,29.04,19.43,37.34,36.25,6.55,13.1,7.21,16.6,7.21,33.19,0,15.29-1.09,20.74-5.9,30.79-10.04,21.84-32.97,39.74-54.81,42.58l-9.61,1.31-67.48,167.46-67.69,167.26,8.95,6.77c10.48,8.08,18.34,19,26.42,36.69,7.21,15.94,9.83,48.69,5.24,68.56-5.9,26.64-21.62,49.35-41.93,60.7l-11.57,6.33-209.41.65c-186.7.44-210.72.22-220.11-3.06-11.79-3.93-30.13-19.22-38.21-32.1-12.88-20.31-18.78-53.5-13.98-79.05,3.49-19,15.5-42.14,28.17-54.15l10.7-9.83-67.68-168.11-67.69-168.14-8.3-1.09c-22.49-3.06-46.07-20.74-56.12-42.8-4.8-10.04-5.9-15.5-5.9-30.79,0-16.6.65-20.09,7.21-33.19,8.3-16.81,20.09-28.39,37.34-36.25,10.26-4.8,15.29-5.9,30.79-5.9s20.53,1.09,31.23,5.9c30.79,14.41,50.22,50.66,43.02,80.36l-2.62,10.92,23.58,27.73c12.88,15.5,25.11,29.91,27.51,32.32,3.71,4.15,3.93,2.18,3.93-67.69v-72.06l-10.04-5.24c-11.57-6.33-22.71-19-29.7-34.28-6.99-15.07-7.21-45.42-.22-60.27,6.55-14.41,22.93-31.23,37.56-38.21,10.7-5.24,14.85-6.11,31.88-6.11s21.62,1.09,32.1,5.9c39.09,18.12,55.68,65.73,35.59,101.75-3.06,5.24-5.46,10.7-5.46,12.01s10.04,28.39,22.27,60.05c16.38,42.58,22.71,56.56,24.02,53.72.87-2.4,11.57-39.74,23.58-83.41l21.84-79.27-10.7-10.7c-5.9-5.9-13.54-16.38-17.03-23.36-5.24-11.14-6.11-15.07-6.11-32.32s.65-21.18,6.99-34.28c10.7-22.93,30.57-39.3,54.59-45.42,14.84-3.73,38.64-1.11,53.71,6.1Z"/><path d="m471.22,106.16c-11.57,5.9-18.34,17.69-18.34,32.1,0,12.01,5.24,22.05,15.94,29.91,8.73,6.55,31.44,6.55,39.96,0,11.79-8.73,15.07-15.29,15.07-30.35s-3.28-21.62-14.85-30.35c-8.52-6.33-26.64-6.98-37.78-1.31Z"/><path d="m272.51,182.37c-10.26,6.33-13.98,12.88-13.98,24.89,0,14.63,4.8,22.93,16.6,28.17,26.64,11.79,51.75-11.57,41.49-38.65-6.77-17.25-28.17-24.24-44.11-14.41Z"/><path d="m674.51,182.59c-31.23,20.53-5.68,67.25,29.04,53.5,23.15-9.39,24.68-43.23,2.62-54.59-8.95-4.59-23.8-4.15-31.66,1.09Z"/><path d="m117.26,308.15c-20.74,8.95-20.96,42.8-.44,53.94,20.74,11.14,45.64-3.49,45.64-27.08,0-22.28-23.58-36.25-45.2-26.86Z"/><path d="m833.04,308.8c-26.86,14.41-15.72,57.21,14.63,57.21,17.91,0,31.01-12.88,31.01-30.57,0-24.02-24.24-37.99-45.64-26.64Z"/><path d="m292.17,799.89c-12.88,13.1-12.88,49.35,0,62.45,3.49,3.5,17.69,3.71,198.49,3.71,218.58,0,201.55,1.31,207.66-16.81,5.89-17.25,3.05-38.21-6.55-48.91-3.71-4.15-8.73-4.15-199.8-4.15s-196.31.22-199.8,3.71Z"/><path class="cls-1" d="m635.62,440.91c-94.13-75.61-231.8-54.5-293.91,34.78-64.97,93.39-20.39,222.75,60.2,271.31,56.66,34.14,122.5,23.15,146.95,17.39,60.93-14.35,97.99-51.15,111.54-66.09"/><path class="cls-1" d="m598.46,486.03c-63.39-50.92-156.1-36.7-197.93,23.42-43.75,62.89-13.73,150.01,40.54,182.71,38.16,22.99,82.5,15.59,98.96,11.71,41.03-9.67,65.99-34.45,75.12-44.51"/><path class="cls-2" d="m567.78,524.1c-37.93-30.47-93.39-21.96-118.42,14.01-26.18,37.63-8.22,89.75,24.25,109.31,22.83,13.76,49.36,9.33,59.21,7.01,24.55-5.78,39.48-20.61,44.94-26.63"/></svg>